<svg width="18" height="22" viewBox="0 0 18 22" fill="none" xmlns="http://www.w3.org/2000/svg">
<path d="M16.5112 16.4683H15.7722V10.9996C15.7704 9.48977 15.3099 8.02048 14.4586 6.80843C13.6073 5.59639 12.4103 4.70572 11.0441 4.26777C11.1904 3.95619 11.2665 3.61297 11.2662 3.26509C11.2662 2.66435 11.0406 2.0882 10.6389 1.66342C10.2373 1.23863 9.69255 1 9.12455 1C8.55655 1 8.01181 1.23863 7.61017 1.66342C7.20854 2.0882 6.98292 2.66435 6.98292 3.26509C6.98266 3.61297 7.05868 3.95618 7.20496 4.26777C5.83877 4.70572 4.64177 5.59639 3.79051 6.80843C2.93924 8.02048 2.47873 9.48977 2.47691 10.9996V16.4683H1.7388C1.64177 16.4683 1.54575 16.4885 1.45611 16.5278C1.36647 16.567 1.2849 16.6246 1.21629 16.6972C1.14768 16.7697 1.09325 16.8559 1.05612 16.9507C1.01899 17.0455 1 17.1471 1 17.2497C1 17.3523 1.01899 17.454 1.05612 17.5488C1.09325 17.6436 1.14768 17.7298 1.21629 17.8023C1.2849 17.8749 1.36647 17.9325 1.45611 17.9718C1.54575 18.011 1.64177 18.0312 1.7388 18.0312H5.5095C5.67969 18.8707 6.11678 19.6233 6.7478 20.1635C7.37883 20.7037 8.16563 20.9989 8.97745 21H9.27304C10.0849 20.9989 10.8718 20.7037 11.5029 20.1635C12.1339 19.6233 12.571 18.8707 12.7412 18.0312H16.5119C16.7077 18.031 16.8954 17.9486 17.0339 17.8021C17.1723 17.6555 17.25 17.4568 17.25 17.2497C17.25 17.1471 17.2308 17.0455 17.1937 16.9507C17.1565 16.8559 17.1021 16.7697 17.0335 16.6972C16.9649 16.6246 16.8835 16.567 16.7939 16.5278C16.7042 16.4885 16.6082 16.4683 16.5112 16.4683ZM8.45634 3.26435C8.45671 3.07804 8.52698 2.8995 8.65154 2.76776C8.7761 2.63602 8.94491 2.56179 9.12107 2.5614C9.29728 2.56159 9.46617 2.6357 9.59077 2.76748C9.71537 2.89926 9.78543 3.07798 9.78562 3.26435C9.78543 3.45072 9.71537 3.62944 9.59077 3.76122C9.46617 3.893 9.29728 3.96711 9.12107 3.9673C8.94486 3.96711 8.77596 3.893 8.65136 3.76122C8.52676 3.62944 8.45653 3.45072 8.45634 3.26435ZM9.26886 19.4363H8.97327C8.55443 19.4361 8.14552 19.3016 7.80049 19.0505C7.45547 18.7993 7.19055 18.4434 7.04078 18.0297H11.2005C11.051 18.443 10.7868 18.7986 10.4425 19.0498C10.0982 19.3011 9.68996 19.4361 9.27165 19.4371L9.26886 19.4363ZM3.95033 16.4676V10.9989C3.95184 9.54899 4.49709 8.15892 5.46645 7.13369C6.4358 6.10846 7.7502 5.53177 9.12107 5.53017C10.4919 5.53177 11.8062 6.10846 12.7755 7.13369C13.7449 8.15892 14.2901 9.54899 14.2916 10.9989V16.4676H3.95033Z" fill="black" stroke="black" stroke-width="0.25"/>
</svg>
