<svg width="200" height="105" viewBox="0 0 200 105" fill="none" xmlns="http://www.w3.org/2000/svg">
<g style="mix-blend-mode:luminosity">
<path d="M130.94 40.6156H129.019V31.3459C129.019 31.2877 129.01 31.2299 129.002 31.1708C128.999 30.8032 128.882 30.4413 128.63 30.1553L113.206 12.5365C113.201 12.5315 113.196 12.5301 113.193 12.5256C113.102 12.4224 112.994 12.337 112.881 12.2635C112.847 12.2406 112.814 12.2218 112.778 12.2024C112.68 12.1491 112.576 12.1043 112.469 12.0721C112.44 12.0645 112.414 12.0525 112.385 12.0446C112.268 12.0172 112.147 12 112.025 12H74.1172C72.3861 12 70.98 13.4079 70.98 15.1373V40.6147H69.0594C66.583 40.6147 64.5752 42.6218 64.5752 45.0985V68.416C64.5752 70.8915 66.583 72.9007 69.0594 72.9007H70.98V88.8628C70.98 90.5924 72.3861 92 74.1172 92H125.882C127.611 92 129.019 90.5924 129.019 88.8628V72.9008H130.94C133.416 72.9008 135.424 70.8925 135.424 68.4169V45.0994C135.424 42.622 133.416 40.6156 130.94 40.6156ZM74.1172 15.1373H110.456V31.1881C110.456 32.0548 111.159 32.7567 112.025 32.7567H125.882V40.6155H74.1172V15.1373ZM97.734 57.6954C93.8412 56.3398 91.3048 54.1859 91.3048 50.781C91.3048 46.7826 94.6404 43.7237 100.166 43.7237C102.808 43.7237 104.755 44.2798 106.144 44.9066L104.963 49.1817C104.025 48.7284 102.357 48.0681 100.062 48.0681C97.7692 48.0681 96.657 49.1112 96.657 50.3275C96.657 51.8227 97.9771 52.4824 101.002 53.6297C105.137 55.1587 107.084 57.3123 107.084 60.6149C107.084 64.5412 104.06 67.8791 97.6301 67.8791C94.9544 67.8791 92.3119 67.1822 90.9917 66.4536L92.0685 62.074C93.4943 62.8056 95.6834 63.534 97.9434 63.534C100.376 63.534 101.662 62.526 101.662 60.9957C101.662 59.5352 100.549 58.7019 97.734 57.6954ZM70.1363 56.1652C70.1363 48.1722 75.8376 43.7237 82.9258 43.7237C85.6721 43.7237 87.7572 44.2798 88.6963 44.7668L87.6177 48.9713C86.5409 48.5213 85.0451 48.1048 83.1689 48.1048C78.9635 48.1048 75.6975 50.6399 75.6975 55.8523C75.6975 60.5444 78.4772 63.4979 83.2053 63.4979C84.8026 63.4979 86.5754 63.1509 87.6177 62.7336L88.4178 66.8696C87.4443 67.3569 85.2553 67.8791 82.4052 67.8791C74.3073 67.8792 70.1363 62.8378 70.1363 56.1652ZM125.882 88.0125H74.1172V72.9008H125.882V88.0125ZM122.378 67.5301H116.192L108.685 44.1066H114.49L117.339 54.0129C118.138 56.7918 118.868 59.4678 119.425 62.3876H119.529C120.119 59.5718 120.848 56.7917 121.648 54.1156L124.637 44.1066H130.269L122.378 67.5301Z" fill="#242429"/>
</g>
</svg>
