<svg width="20" height="20" viewBox="0 0 20 20" fill="none" xmlns="http://www.w3.org/2000/svg">
<path d="M6.19434 8.71103H8.00939V14.5826H6.19434V8.71103ZM9.82139 6.19437H11.6364V14.5833H9.82139V6.19437ZM13.4507 10.472H15.2658V14.5818H13.4507V10.472Z" fill="#ACACAE"/>
<path d="M15.108 2H5.67052C5.18847 1.9999 4.71113 2.09477 4.26575 2.2792C3.82038 2.46362 3.41571 2.73399 3.07485 3.07485C2.73399 3.41571 2.46362 3.82038 2.2792 4.26575C2.09477 4.71113 1.9999 5.18847 2 5.67052V15.108C2 15.59 2.09495 16.0673 2.27942 16.5126C2.46389 16.9578 2.73427 17.3624 3.07512 17.7032C3.41597 18.044 3.82061 18.3143 4.26593 18.4987C4.71125 18.683 5.18854 18.7779 5.67052 18.7778H15.108C16.0813 18.7778 17.0147 18.3911 17.7029 17.7029C18.3911 17.0147 18.7778 16.0813 18.7778 15.108V5.67052C18.7779 5.18854 18.683 4.71125 18.4987 4.26593C18.3143 3.82061 18.044 3.41597 17.7032 3.07512C17.3624 2.73427 16.9578 2.46389 16.5126 2.27942C16.0673 2.09495 15.59 2 15.108 2ZM17.7299 15.108C17.73 15.4524 17.6623 15.7934 17.5306 16.1115C17.3988 16.4297 17.2057 16.7187 16.9622 16.9622C16.7187 17.2057 16.4297 17.3988 16.1115 17.5306C15.7934 17.6623 15.4524 17.73 15.108 17.7299H5.67052C5.32618 17.73 4.98519 17.6623 4.66704 17.5306C4.34889 17.3988 4.05981 17.2057 3.81633 16.9622C3.57284 16.7187 3.37972 16.4297 3.24799 16.1115C3.11626 15.7934 3.04851 15.4524 3.04861 15.108V5.67052C3.04851 5.32618 3.11626 4.98519 3.24799 4.66704C3.37972 4.34889 3.57284 4.05981 3.81633 3.81633C4.05981 3.57284 4.34889 3.37972 4.66704 3.24799C4.98519 3.11626 5.32618 3.04851 5.67052 3.04861H15.108C15.4524 3.04851 15.7934 3.11626 16.1115 3.24799C16.4297 3.37972 16.7187 3.57284 16.9622 3.81633C17.2057 4.05981 17.3988 4.34889 17.5306 4.66704C17.6623 4.98519 17.73 5.32618 17.7299 5.67052V15.108Z" fill="#ACACAE" stroke="#ACACAE" stroke-width="0.2"/>
</svg>
