<svg width="58" height="23" viewBox="0 0 58 23" fill="none" xmlns="http://www.w3.org/2000/svg">
<path fill-rule="evenodd" clip-rule="evenodd" d="M13.292 17.4035H11.7397V16.698C11.5068 16.8455 11.2644 16.9796 11.0124 17.1003C10.6659 17.2591 10.3086 17.3855 9.94042 17.4793C9.57949 17.5731 9.21134 17.6201 8.83597 17.6201C8.02026 17.6201 7.25148 17.4685 6.52962 17.1653C5.81497 16.8549 5.18695 16.429 4.64556 15.8876C4.11138 15.339 3.68909 14.6929 3.37869 13.9494C3.06829 13.1987 2.91309 12.383 2.91309 11.5023C2.91309 10.6288 3.06829 9.81674 3.37869 9.066C3.68909 8.31527 4.11138 7.66559 4.64556 7.11697C5.18695 6.56836 5.81497 6.13885 6.52962 5.82845C7.25148 5.51805 8.02026 5.36285 8.83597 5.36285C9.09584 5.36285 9.36293 5.3845 9.63724 5.42781C9.91876 5.47113 10.1895 5.54331 10.4493 5.64437C10.7164 5.73822 10.9655 5.86454 11.1965 6.02335C11.4275 6.18216 11.6224 6.37706 11.7812 6.60806V1.19409H14.7589V17.4035H13.292ZM11.7812 11.5023C11.7812 11.098 11.7018 10.7082 11.543 10.3329C11.3914 9.95028 11.182 9.61462 10.9149 9.32587C10.6478 9.02991 10.3338 8.7953 9.9729 8.62206C9.61919 8.44159 9.24021 8.35136 8.83597 8.35136C8.43173 8.35136 8.04914 8.42354 7.68821 8.56792C7.33449 8.71229 7.02409 8.92163 6.757 9.19594C6.49713 9.46303 6.2914 9.79147 6.13981 10.1813C5.98822 10.5711 5.91242 11.0114 5.91242 11.5023C5.91242 11.9282 5.98822 12.3324 6.13981 12.715C6.2914 13.0976 6.49713 13.4333 6.757 13.722C7.02409 14.0108 7.33449 14.2381 7.68821 14.4042C8.04914 14.5702 8.43173 14.6532 8.83597 14.6532C9.24021 14.6532 9.61919 14.5666 9.9729 14.3933C10.3338 14.2129 10.6478 13.9783 10.9149 13.6895C11.182 13.3936 11.3914 13.0579 11.543 12.6825C11.7018 12.2999 11.7812 11.9065 11.7812 11.5023ZM18.8908 17.4035H15.9131V5.80679H18.8908V17.4035ZM28.0577 10.3329C28.2165 10.7082 28.2959 11.098 28.2959 11.5023C28.2959 11.9065 28.2165 12.2999 28.0577 12.6825C27.9061 13.0579 27.6968 13.3936 27.4297 13.6895C27.1626 13.9783 26.8486 14.2129 26.4877 14.3933C26.134 14.5666 25.755 14.6532 25.3507 14.6532C24.9465 14.6532 24.5639 14.581 24.203 14.4367C23.8493 14.2851 23.5389 14.0721 23.2718 13.7978C23.0119 13.5235 22.8062 13.1951 22.6546 12.8125C22.503 12.4227 22.4272 11.9859 22.4272 11.5023C22.4272 10.997 22.503 10.5494 22.6546 10.1596C22.8062 9.7626 23.0119 9.43054 23.2718 9.16345C23.5389 8.89636 23.8493 8.69424 24.203 8.55709C24.5639 8.41994 24.9465 8.35136 25.3507 8.35136C25.755 8.35136 26.134 8.44159 26.4877 8.62206C26.8486 8.7953 27.1626 9.02991 27.4297 9.32587C27.6968 9.61462 27.9061 9.95028 28.0577 10.3329ZM30.808 18.2373C31.1184 17.5226 31.2736 16.7574 31.2736 15.9417V5.82845H30.559L30.5587 5.8288H28.3714V6.37185C28.1062 6.19208 27.8285 6.0326 27.538 5.89342C27.1915 5.72739 26.8342 5.59745 26.466 5.50361C26.0979 5.40977 25.7261 5.36285 25.3507 5.36285C24.535 5.36285 23.7663 5.51805 23.0444 5.82845C22.3297 6.13885 21.7017 6.56836 21.1603 7.11697C20.6261 7.66559 20.2039 8.31527 19.8935 9.066C19.5831 9.81674 19.4279 10.6288 19.4279 11.5023C19.4279 12.4551 19.5831 13.3106 19.8935 14.0685C20.2039 14.8265 20.6261 15.4689 21.1603 15.9959C21.7017 16.5156 22.3297 16.9163 23.0444 17.1978C23.7663 17.4793 24.535 17.6201 25.3507 17.6201C25.5962 17.6201 25.8597 17.6056 26.1412 17.5768C26.4299 17.5479 26.7042 17.4937 26.9641 17.4143C27.2312 17.3422 27.473 17.2483 27.6896 17.1328C27.9061 17.0101 28.0722 16.8549 28.1877 16.6672C28.1083 16.9632 28 17.2447 27.8628 17.5118C27.7329 17.7789 27.556 18.0135 27.3323 18.2156C27.1085 18.4249 26.8342 18.5874 26.5093 18.7029C26.1845 18.8256 25.7911 18.8869 25.3291 18.8869L23.202 18.8653V21.8213L25.3507 21.843C26.1664 21.843 26.9316 21.6878 27.6463 21.3774C28.3681 21.067 28.9961 20.6447 29.5303 20.1105C30.0717 19.5763 30.4976 18.9519 30.808 18.2373ZM35.3839 17.4035H32.4279V7.31476L32.4245 7.31374V5.80701H32.4279V5.80679H33.1425L33.1427 5.80701H35.4863V6.03795C35.5665 6.00229 35.6479 5.96855 35.7304 5.93673C36.3368 5.69851 36.9684 5.57941 37.6253 5.57941C38.3327 5.57941 39.0004 5.71656 39.6285 5.99087C40.2565 6.25796 40.8051 6.62972 41.2743 7.10615C41.7435 7.57536 42.1117 8.12758 42.3788 8.76282C42.6531 9.39084 42.7902 10.0622 42.7902 10.7768V17.4035H39.8342V10.7768C39.8342 10.4736 39.7764 10.1885 39.6609 9.92141C39.5454 9.6471 39.3866 9.40889 39.1845 9.20677C38.9824 9.00464 38.7478 8.84583 38.4807 8.73034C38.2136 8.61484 37.9285 8.55709 37.6253 8.55709C37.3149 8.55709 37.0225 8.61484 36.7482 8.73034C36.4739 8.84583 36.2357 9.00464 36.0336 9.20677C35.8315 9.40889 35.6726 9.6471 35.5572 9.92141C35.4417 10.1885 35.3839 10.4736 35.3839 10.7768V17.4035ZM54.5342 13.9277C54.8446 13.177 54.9998 12.3685 54.9998 11.5023C54.9998 10.5783 54.8446 9.74094 54.5342 8.99021C54.2238 8.23225 53.8015 7.58618 53.2673 7.05201C52.7332 6.51061 52.1051 6.09554 51.3833 5.80679C50.6686 5.51083 49.8998 5.36285 49.0769 5.36285C48.2612 5.36285 47.4924 5.51805 46.7706 5.82845C46.0559 6.13885 45.4279 6.56836 44.8865 7.11697C44.3523 7.65837 43.93 8.30444 43.6196 9.05517C43.3092 9.80591 43.154 10.6216 43.154 11.5023C43.154 12.3685 43.3092 13.177 43.6196 13.9277C43.93 14.6713 44.3523 15.3173 44.8865 15.8659C45.4279 16.4073 46.0559 16.8369 46.7706 17.1545C47.4924 17.4649 48.2612 17.6201 49.0769 17.6201C49.8998 17.6201 50.6686 17.4649 51.3833 17.1545C52.1051 16.8369 52.7332 16.4073 53.2673 15.8659C53.8015 15.3173 54.2238 14.6713 54.5342 13.9277ZM51.7839 10.2138C51.9427 10.5964 52.0221 11.0259 52.0221 11.5023C52.0221 11.9715 51.9427 12.401 51.7839 12.7908C51.6323 13.1806 51.423 13.5127 51.1559 13.787C50.8888 14.0613 50.5748 14.2742 50.2138 14.4258C49.8601 14.5774 49.4812 14.6532 49.0769 14.6532C48.6727 14.6532 48.2901 14.5738 47.9292 14.415C47.5754 14.249 47.265 14.0252 46.998 13.7437C46.7381 13.4621 46.5324 13.1301 46.3808 12.7475C46.2292 12.3649 46.1534 11.9498 46.1534 11.5023C46.1534 11.0259 46.2292 10.5964 46.3808 10.2138C46.5324 9.82396 46.7381 9.4919 46.998 9.21759C47.265 8.93607 47.5754 8.72312 47.9292 8.57874C48.2901 8.42715 48.6727 8.35136 49.0769 8.35136C49.4812 8.35136 49.8601 8.42715 50.2138 8.57874C50.5748 8.72312 50.8888 8.93607 51.1559 9.21759C51.423 9.4919 51.6323 9.82396 51.7839 10.2138Z" fill="#F9F9F9"/>
<path d="M17.5 4C18.3284 4 19 3.32843 19 2.5C19 1.67157 18.3284 1 17.5 1C16.6716 1 16 1.67157 16 2.5C16 3.32843 16.6716 4 17.5 4Z" fill="#64CC64"/>
</svg>
