<svg width="20" height="20" viewBox="0 0 20 20" fill="none" xmlns="http://www.w3.org/2000/svg">
<g clip-path="url(#clip0_2033:23512)">
<path d="M19.245 0H13.7928C13.3765 0 13.0391 0.337422 13.0391 0.753789C13.0391 1.17012 13.3765 1.50754 13.7928 1.50754H18.4913V6.20602C18.4913 6.62234 18.8287 6.95977 19.245 6.95977C19.6613 6.95977 19.9988 6.62234 19.9988 6.20602V0.753789C19.9988 0.337422 19.6614 0 19.245 0Z" fill="#566477"/>
<path d="M19.7788 0.220869C19.4843 -0.073623 19.0074 -0.073623 18.7129 0.220869L7.95915 10.9746C7.66466 11.2688 7.66466 11.7462 7.95915 12.0404C8.10614 12.1877 8.29911 12.2613 8.49208 12.2613C8.68478 12.2613 8.87774 12.1877 9.02501 12.0404L19.7788 1.28669C20.0733 0.992471 20.0733 0.515088 19.7788 0.220869Z" fill="#566477"/>
<path d="M16.6834 9.37182C16.2671 9.37182 15.9296 9.70924 15.9296 10.1256V18.4924H1.50754V4.07029H9.87437C10.2907 4.07029 10.6281 3.73286 10.6281 3.31653C10.6281 2.90021 10.2907 2.56274 9.87437 2.56274H0.753789C0.337422 2.56274 0 2.90017 0 3.31653V19.2462C0 19.6625 0.337422 20 0.753789 20H16.6834C17.1 20 17.4372 19.6625 17.4372 19.2462V10.1256C17.4372 9.70924 17.0998 9.37182 16.6834 9.37182Z" fill="#566477"/>
</g>
<defs>
<clipPath id="clip0_2033:23512">
<rect width="20" height="20" fill="white"/>
</clipPath>
</defs>
</svg>
