<svg width="20" height="20" viewBox="0 0 16 14" fill="none" xmlns="http://www.w3.org/2000/svg">
<path d="M4.3628 0.10938C4.32796 0.0744202 4.28656 0.0466814 4.24098 0.0277544C4.1954 0.00882735 4.14653 -0.000915527 4.09717 -0.000915527C4.04782 -0.000915527 3.99895 0.00882735 3.95336 0.0277544C3.90778 0.0466814 3.86638 0.0744202 3.83155 0.10938L1.84155 2.08782L1.13217 1.39657C1.09733 1.36161 1.05593 1.33387 1.01035 1.31494C0.964771 1.29602 0.915901 1.28627 0.866546 1.28627C0.81719 1.28627 0.768321 1.29602 0.722739 1.31494C0.677157 1.33387 0.635759 1.36161 0.600921 1.39657L0.110296 1.88782C0.0753357 1.92266 0.0475969 1.96405 0.0286699 2.00964C0.00974286 2.05522 0 2.10409 0 2.15344C0 2.2028 0.00974286 2.25167 0.0286699 2.29725C0.0475969 2.34283 0.0753357 2.38423 0.110296 2.41907L1.59748 3.90032C1.67172 3.97088 1.77022 4.01023 1.87264 4.01023C1.97506 4.01023 2.07356 3.97088 2.1478 3.90032L2.63498 3.41219L4.89123 1.15626C4.96153 1.0859 5.00125 0.990664 5.00178 0.891208C5.00231 0.791752 4.9636 0.6961 4.89405 0.625005L4.3628 0.10938ZM4.3628 5.08407C4.32796 5.04911 4.28656 5.02137 4.24098 5.00244C4.1954 4.98352 4.14653 4.97377 4.09717 4.97377C4.04782 4.97377 3.99895 4.98352 3.95336 5.00244C3.90778 5.02137 3.86638 5.04911 3.83155 5.08407L1.84155 7.07532L1.13217 6.38469C1.09733 6.34973 1.05593 6.32199 1.01035 6.30307C0.964771 6.28414 0.915901 6.2744 0.866546 6.2744C0.81719 6.2744 0.768321 6.28414 0.722739 6.30307C0.677157 6.32199 0.635759 6.34973 0.600921 6.38469L0.110296 6.87501C0.0753357 6.90984 0.0475969 6.95124 0.0286699 6.99682C0.00974286 7.04241 0 7.09128 0 7.14063C0 7.18999 0.00974286 7.23886 0.0286699 7.28444C0.0475969 7.33002 0.0753357 7.37142 0.110296 7.40626L1.59373 8.89063C1.66791 8.96117 1.76637 9.00051 1.86873 9.00051C1.9711 9.00051 2.06955 8.96117 2.14373 8.89063L2.63436 8.40032L4.89061 6.14344C4.96064 6.07358 5.00023 5.97888 5.00075 5.87996C5.00128 5.78104 4.9627 5.68592 4.89342 5.61532L4.3628 5.08407ZM1.99998 10.5C1.17217 10.5 0.481546 11.1719 0.481546 12C0.481546 12.8281 1.1728 13.5 1.99998 13.5C2.39781 13.5 2.77934 13.342 3.06064 13.0607C3.34195 12.7794 3.49998 12.3978 3.49998 12C3.49998 11.6022 3.34195 11.2207 3.06064 10.9393C2.77934 10.658 2.39781 10.5 1.99998 10.5ZM15.5 11H6.49998C6.36737 11 6.2402 11.0527 6.14643 11.1465C6.05266 11.2402 5.99998 11.3674 5.99998 11.5V12.5C5.99998 12.6326 6.05266 12.7598 6.14643 12.8536C6.2402 12.9473 6.36737 13 6.49998 13H15.5C15.6326 13 15.7598 12.9473 15.8535 12.8536C15.9473 12.7598 16 12.6326 16 12.5V11.5C16 11.3674 15.9473 11.2402 15.8535 11.1465C15.7598 11.0527 15.6326 11 15.5 11ZM15.5 1.00001H6.49998C6.36737 1.00001 6.2402 1.05268 6.14643 1.14645C6.05266 1.24022 5.99998 1.3674 5.99998 1.50001V2.50001C5.99998 2.63261 6.05266 2.75979 6.14643 2.85356C6.2402 2.94733 6.36737 3.00001 6.49998 3.00001H15.5C15.6326 3.00001 15.7598 2.94733 15.8535 2.85356C15.9473 2.75979 16 2.63261 16 2.50001V1.50001C16 1.3674 15.9473 1.24022 15.8535 1.14645C15.7598 1.05268 15.6326 1.00001 15.5 1.00001V1.00001ZM15.5 6.00001H6.49998C6.36737 6.00001 6.2402 6.05268 6.14643 6.14645C6.05266 6.24022 5.99998 6.3674 5.99998 6.50001V7.50001C5.99998 7.63261 6.05266 7.75979 6.14643 7.85356C6.2402 7.94733 6.36737 8.00001 6.49998 8.00001H15.5C15.6326 8.00001 15.7598 7.94733 15.8535 7.85356C15.9473 7.75979 16 7.63261 16 7.50001V6.50001C16 6.3674 15.9473 6.24022 15.8535 6.14645C15.7598 6.05268 15.6326 6.00001 15.5 6.00001Z" fill="#ACACAE"/>
</svg>
