<svg width="32" height="28" viewBox="0 0 32 28" fill="none" xmlns="http://www.w3.org/2000/svg">
<path d="M28.2472 3.45952C27.553 2.74265 26.7272 2.17549 25.817 1.79044C24.9068 1.40539 23.9301 1.21 22.9425 1.21542C21.955 1.22085 20.9761 1.42698 20.0617 1.82206C19.1473 2.21713 18.3153 2.79339 17.6133 3.51793L16.1564 5.02089L14.7156 3.53384C13.3133 2.0865 11.4052 1.27955 9.41092 1.29051C7.41667 1.30146 5.4997 2.12942 4.08171 3.59225C2.66372 5.05508 1.86087 7.03295 1.84977 9.09075C1.83868 11.1486 2.62026 13.1177 4.02256 14.5651L5.46334 16.0521L16.0381 26.9665L26.7312 15.9353L28.1881 14.4323C28.8904 13.7081 29.4491 12.8498 29.8322 11.9063C30.2153 10.9629 30.4153 9.9528 30.4208 8.93382C30.4263 7.91483 30.2371 6.9069 29.8642 5.9676C29.4913 5.0283 28.9418 4.17604 28.2472 3.45952V3.45952Z" stroke="#64CC64" strokeWidth="2" strokeLinecap="round" strokeLinejoin="round"/>
</svg>
