<svg width="200" height="105" viewBox="0 0 200 105" fill="none" xmlns="http://www.w3.org/2000/svg">
<path d="M164.291 29.2348C153.973 29.2348 145.577 37.6222 145.577 47.9331C145.577 58.2441 153.973 66.6315 164.291 66.6315C174.606 66.6315 183 58.2441 183 47.9331C183 37.6222 174.606 29.2348 164.291 29.2348V29.2348ZM164.291 57.7698C158.865 57.7698 154.445 53.3522 154.445 47.9331C154.445 42.5117 158.865 38.0965 164.291 38.0965C169.713 38.0965 174.134 42.5117 174.134 47.9331C174.134 53.3546 169.715 57.7698 164.289 57.7698H164.291ZM109.186 44.1463L105.914 42.5141C104.493 41.8111 103.602 41.267 103.244 40.865C102.903 40.5088 102.708 40.0379 102.7 39.5457C102.7 38.915 102.985 38.383 103.547 37.9689C104.103 37.5356 104.895 37.3381 105.899 37.3381C107.736 37.3381 109.772 38.4407 112.013 40.6628L117.536 35.1426C116.179 33.3044 114.404 31.8113 112.357 30.7852C110.336 29.7739 108.103 29.2525 105.841 29.2637C102.47 29.2637 99.6864 30.2531 97.5178 32.2465C95.3516 34.2398 94.2625 36.6352 94.2625 39.4446C94.2625 43.802 97.1305 47.4324 102.886 50.3141L105.899 51.8187C108.496 53.1259 109.789 54.4572 109.789 55.8343C109.789 56.5806 109.428 57.2257 108.712 57.7987C107.995 58.3741 107.046 58.6461 105.87 58.6461C104.781 58.6461 103.532 58.273 102.126 57.5146C100.725 56.7685 99.4783 55.7654 98.452 54.5583L92.958 60.5383C96.0559 64.5828 100.187 66.6194 105.381 66.6194C109.285 66.6194 112.4 65.5578 114.709 63.4489C117.033 61.3424 118.194 58.7039 118.194 55.5478C118.194 53.1813 117.551 51.1037 116.273 49.3391C114.983 47.5744 112.616 45.8556 109.186 44.1487V44.1463ZM53.6258 62.5581V29.9787H44.7434V32.1598C41.7504 30.2463 38.2667 29.2308 34.7088 29.2348C24.3936 29.2348 16 37.6222 16 47.9331C16 58.2441 24.3936 66.6315 34.7113 66.6315C38.2264 66.6367 41.6706 65.6473 44.6417 63.7787C44.6417 64.0652 44.6272 64.3228 44.6272 64.4961C44.6272 69.9152 40.2077 74.3328 34.7839 74.3328C32.9396 74.3285 31.1341 73.8061 29.5754 72.8257L25.1826 80.5126C28.0792 82.2701 31.4054 83.2028 34.7984 83.2089C45.1161 83.2089 53.6258 74.8191 53.6258 64.5081C53.6258 64.1085 53.6524 62.9313 53.6258 62.5581V62.5581ZM34.7113 57.7674C29.2898 57.7674 24.8679 53.3522 24.8679 47.9331C24.8679 42.5117 29.2874 38.0965 34.7113 38.0965C40.1351 38.0965 44.5546 42.5117 44.5546 47.9331C44.5546 53.3522 40.1351 57.7698 34.7113 57.7698V57.7674ZM89.008 29.9667H80.082V47.743C80.0965 50.2683 80.0965 54.6281 78.2329 56.4915C77.3422 57.3798 76.3669 58.1839 74.3145 58.1839C72.2475 58.1839 71.2722 57.3798 70.3839 56.4915C68.5179 54.6257 68.5324 50.2539 68.5445 47.743V29.9667H59.6209V47.69C59.5918 51.3444 59.5483 58.1285 64.0258 62.6304C66.6518 65.2689 69.7813 66.617 74.2999 66.617C78.821 66.617 81.9481 65.2833 84.5741 62.6304C89.0516 58.1285 89.008 51.33 88.979 47.69L89.008 29.9643V29.9667ZM139.59 56.1785C138.873 56.7226 137.135 57.9287 135.17 57.6567C133.563 57.44 132.259 56.2652 132.058 52.3363V37.5957H142.547V29.9378H132.058V20H123.161V21.95H123.146V51.1759C123.146 55.8222 124.322 66.617 135.156 66.617C140.638 66.5328 143.966 63.5644 145.36 62.4041L145.546 62.2596L140.207 55.6922C140.192 55.7043 139.82 56.0052 139.59 56.1785V56.1785Z" fill="#F45D48"/>
</svg>
