<svg width="200" height="105" viewBox="0 0 200 105" fill="none" xmlns="http://www.w3.org/2000/svg">
<path d="M109.115 48.7695H90.8848C82.6773 48.7695 76 54.1444 76 60.7511V85.0108C76 86.3341 77.3328 87.4071 78.977 87.4071H121.023C122.667 87.4071 124 86.3342 124 85.0108V60.7511C124 54.1444 117.323 48.7695 109.115 48.7695Z" fill="#64CC64"/>
<path d="M100 17C92.2804 17 86 23.2803 86 31.0001C86 36.2363 88.8901 40.8094 93.1581 43.2104C95.1825 44.3492 97.5165 45 100 45C102.484 45 104.817 44.3492 106.842 43.2104C111.11 40.8094 114 36.2361 114 31.0001C114 23.2805 107.72 17 100 17Z" fill="#64CC64"/>
</svg>
