<svg width="678" height="567" viewBox="0 0 678 567" fill="none" xmlns="http://www.w3.org/2000/svg">
<path d="M41.9842 140.607C45.9884 158.702 46.2407 177.427 42.7255 195.624C39.2103 213.821 32.0024 231.102 21.5476 246.399C7.79859 266.666 0 289.721 0 314.262C0 393.284 80.4313 457.427 179.809 457.427C215.845 457.427 249.28 449.061 277.33 434.558C306.349 419.515 339.38 414.048 371.693 418.94C390.863 421.961 410.242 423.453 429.648 423.402C566.734 423.402 678 350.332 678 260.158C678 186.531 603.699 124.25 501.534 103.979C471.882 97.9633 444.71 83.1988 423.517 61.5873C387.853 25.1455 321.725 0.78894 246.124 0.78894C132.256 0.78894 40.1232 56.0098 40.1232 124.059C40.089 129.629 40.7136 135.184 41.9842 140.607Z" fill="white"/>
<path d="M559.778 454.771H33.9358C33.0984 454.772 32.2689 454.608 31.4948 454.288C30.7208 453.968 30.0176 453.498 29.4255 452.905C28.8334 452.312 28.3641 451.607 28.0445 450.832C27.725 450.057 27.5615 449.226 27.5635 448.387C27.5617 447.549 27.7252 446.718 28.0448 445.943C28.3644 445.167 28.8337 444.463 29.4258 443.87C30.0179 443.277 30.7211 442.807 31.4951 442.487C32.269 442.167 33.0985 442.003 33.9358 442.005H559.778C560.615 442.003 561.445 442.167 562.219 442.487C562.993 442.807 563.696 443.277 564.288 443.87C564.88 444.463 565.35 445.167 565.669 445.942C565.989 446.718 566.153 447.548 566.151 448.387C566.126 450.072 565.446 451.681 564.256 452.873C563.066 454.065 561.46 454.745 559.778 454.771Z" fill="#87AFB9"/>
<path d="M372.727 534.643L368.077 518.082C367.948 517.638 367.691 517.241 367.339 516.941C366.986 516.642 366.554 516.452 366.095 516.397C365.636 516.342 365.171 516.423 364.757 516.631C364.344 516.838 364.001 517.163 363.771 517.564L363.426 518.082C362.513 519.833 362.267 521.856 362.733 523.775C364.455 530.33 364.8 535.333 363.593 538.438C363.421 539.133 363.766 539.991 364.454 539.991C368.938 540.507 371.352 537.403 372.727 534.643Z" fill="#FAB9AF"/>
<path d="M363.257 538.783C365.16 538.446 367.012 537.866 368.768 537.057C370.278 536.281 371.67 535.293 372.902 534.125L375.658 537.919C375.859 538.169 376.003 538.46 376.078 538.772C376.153 539.083 376.157 539.408 376.091 539.722C376.024 540.036 375.889 540.331 375.694 540.585C375.499 540.84 375.249 541.048 374.964 541.193C369.108 544.299 354.296 552.234 353.606 551.717C350.164 549.65 358.087 544.303 363.257 538.783Z" fill="#46738C"/>
<path d="M112.131 251.385C112.131 251.385 122.638 221.368 121.949 213.433C121.771 211.575 120.918 209.847 119.554 208.575C118.189 207.303 116.406 206.577 114.542 206.533H107.998C107.679 206.541 107.362 206.484 107.066 206.365C106.77 206.247 106.501 206.069 106.276 205.843C106.05 205.617 105.873 205.348 105.754 205.052C105.636 204.755 105.579 204.438 105.587 204.118L105.242 195.493L97.8355 194.631L94.9074 204.809C94.7513 205.322 94.4303 205.77 93.9944 206.082C93.5584 206.394 93.0318 206.553 92.4963 206.534H89.3958C87.373 206.545 85.4334 207.342 83.9871 208.759C82.5408 210.175 81.7011 212.1 81.6456 214.125C81.3009 224.303 88.018 252.421 88.018 252.421C88.018 252.421 74.4115 291.411 77.3396 294.685C77.3396 294.685 117.127 291.411 124.016 283.474C129.7 276.571 112.131 251.385 112.131 251.385Z" fill="#FAB9AF"/>
<path d="M321.572 371.796C321.572 371.796 328.462 372.658 329.323 370.589C330.183 368.519 330.528 367.138 327.6 365.586C324.672 364.035 320.193 363.516 317.265 363.688C314.337 363.861 309.686 366.103 309.341 366.621C308.135 368.692 313.303 367.828 315.713 367.656C318.297 367.311 321.052 367.311 320.88 368.518C320.708 369.725 315.885 369.898 315.196 371.278C314.507 372.658 321.572 371.796 321.572 371.796Z" fill="#FA968C"/>
<path d="M317.612 356.269H329.152V360.582H317.612V356.269Z" fill="#064E89"/>
<path d="M252.851 442.006L315.373 379.558L377.724 442.006H395.981L315.373 361.272L234.594 442.006H252.851Z" fill="#1F99C0"/>
<path d="M309.345 72.3221H321.401V427.17H309.345V72.3221Z" fill="#1F99C0"/>
<path d="M160.187 114.587H474.865V314.523H160.187V114.587Z" fill="#05CDFF"/>
<path d="M462.808 114.586C466.047 114.599 469.15 115.893 471.441 118.188C473.731 120.482 475.024 123.59 475.036 126.834V314.523H160.186V126.662C160.198 123.417 161.491 120.309 163.781 118.015C166.072 115.721 169.175 114.426 172.414 114.414H462.808V114.586ZM462.808 101.993H172.414C169.18 101.993 165.977 102.63 162.988 103.87C160 105.109 157.284 106.926 154.997 109.217C152.71 111.508 150.896 114.228 149.658 117.221C148.421 120.214 147.784 123.422 147.785 126.662V326.772H487.266V126.662C487.277 120.145 484.709 113.891 480.125 109.267C475.541 104.643 469.314 102.028 462.808 101.993Z" fill="#0F457A"/>
<path d="M499.492 314.523H135.556C135.561 318.959 137.322 323.213 140.454 326.35C143.587 329.487 147.834 331.251 152.263 331.256H482.96C487.353 331.186 491.544 329.395 494.634 326.267C497.724 323.139 499.468 318.923 499.492 314.523Z" fill="#0AA8FF"/>
<path d="M171.726 301.93H207.38V314.35H171.726V301.93Z" fill="#0D82B1"/>
<path d="M250.267 314.523H223.398L226.154 308.312H253.023L250.267 314.523Z" fill="#4BD0E3"/>
<path d="M307.794 352.302H322.951V364.549H307.794V352.302Z" fill="#046AA2"/>
<path d="M331.218 362.48H329.151V354.372H331.218C331.675 354.373 332.113 354.555 332.436 354.878C332.759 355.202 332.94 355.64 332.941 356.098V360.756C332.955 360.986 332.92 361.216 332.838 361.432C332.756 361.647 332.63 361.843 332.467 362.006C332.304 362.169 332.109 362.295 331.893 362.377C331.678 362.459 331.448 362.494 331.218 362.48Z" fill="#046AA2"/>
<path d="M96.1137 194.802H93.5303C92.7594 194.809 91.995 194.662 91.2816 194.369C90.5681 194.077 89.92 193.645 89.3749 193.099C88.8298 192.553 88.3986 191.904 88.1066 191.189C87.8146 190.475 87.6676 189.709 87.674 188.937V181.864H96.1137V194.802Z" fill="#FF640A"/>
<path d="M98.0086 184.106C93.3579 188.764 86.6409 189.281 82.8529 185.486C79.065 181.691 79.7524 174.963 84.2308 170.307C88.8815 165.649 95.5986 165.132 99.3865 168.927C103.176 172.893 102.487 179.621 98.0086 184.106Z" fill="#FF640A"/>
<path d="M317.44 451.494C311.411 457.532 265.251 506.696 267.835 508.249C270.074 509.629 324.329 470.47 330.358 464.432C336.386 458.394 338.453 450.459 334.836 447.008C331.391 443.386 323.64 445.455 317.44 451.494Z" fill="#41B4E6"/>
<path d="M379.273 410.609C368.766 414.403 312.445 447.353 315.372 455.633C318.299 463.913 380.306 445.627 390.812 441.833C401.318 438.038 406.661 426.825 403.73 418.545C400.799 410.264 389.779 406.814 379.273 410.609Z" fill="#41B4E6"/>
<path d="M267.491 514.977L279.719 502.902C280.05 502.572 280.274 502.15 280.362 501.691C280.45 501.232 280.397 500.757 280.211 500.328C280.025 499.899 279.714 499.537 279.319 499.288C278.924 499.039 278.463 498.915 277.997 498.933H277.479C276.486 498.937 275.503 499.137 274.587 499.522C273.671 499.907 272.839 500.468 272.14 501.175C267.317 505.833 263.011 508.593 259.912 509.112C259.743 509.139 259.582 509.204 259.442 509.302C259.302 509.4 259.186 509.528 259.103 509.678C259.02 509.828 258.972 509.995 258.963 510.166C258.954 510.337 258.984 510.507 259.051 510.665C260.601 514.459 264.39 515.149 267.491 514.977Z" fill="#FAB9AF"/>
<path d="M330.358 464.431C326.569 468.226 293.154 495.137 276.273 506.695C272.31 504.97 271.45 504.281 270.761 501.175C282.474 487.892 307.62 457.186 313.653 450.974C320.37 441.314 369.63 414.23 379.448 410.607C389.954 406.813 400.978 410.262 403.906 418.544C406.834 426.827 401.495 437.865 390.988 441.833C384.095 444.248 332.941 461.844 330.358 464.431Z" fill="#0073AA"/>
<path d="M403.731 418.545C400.803 410.264 389.78 406.814 379.273 410.608C378.068 411.126 376.004 411.988 373.589 413.195C371.873 422.65 367.649 431.469 361.361 438.727C358.565 441.891 356.139 445.364 354.129 449.078C352.752 451.493 351.374 454.08 349.823 456.496C365.842 450.631 386.51 443.385 390.816 441.833C401.492 437.865 406.831 426.652 403.731 418.545Z" fill="#195FA0"/>
<path d="M349.476 447.87C349.778 447.38 350.124 446.918 350.509 446.49C355.503 441.143 372.211 431.483 387.023 423.719C400.457 416.646 416.821 426.134 416.821 441.315V441.832C416.821 442.695 418.026 440.97 418.026 441.832C405.798 446.145 382.2 455.806 370.661 460.98C369.386 461.553 368.32 462.507 367.611 463.713C366.901 464.918 366.582 466.314 366.699 467.708C368.077 482.199 369.968 508.42 369.968 523.6L363.078 526.874C357.394 507.726 348.955 468.049 347.577 462.011C346.72 456.496 347.409 451.148 349.476 447.87Z" fill="#0091C8"/>
<path d="M402.87 364.552C391.676 383.7 370.489 393.016 344.137 382.149C337.725 379.209 331.659 375.563 326.053 371.278C325.572 370.897 325.252 370.349 325.156 369.742C325.06 369.135 325.196 368.515 325.536 368.004C325.871 367.57 326.344 367.264 326.877 367.137C327.41 367.011 327.97 367.072 328.464 367.309C353.094 379.215 378.412 381.11 388.919 356.098C389.092 355.926 389.264 355.404 389.092 355.404C389.498 354.407 390.097 353.5 390.854 352.735C391.611 351.97 392.511 351.361 393.503 350.945C394.495 350.528 395.558 350.312 396.634 350.307C397.709 350.303 398.775 350.51 399.77 350.919C403.559 352.302 407.52 356.96 402.87 364.552Z" fill="#FA968C"/>
<path d="M424.744 351.784L420.61 350.921C420.162 350.824 419.755 350.588 419.446 350.248C419.137 349.908 418.942 349.48 418.888 349.023L417.165 336.43L407.865 336.776L406.832 345.574C406.73 346.163 406.404 346.69 405.922 347.044C405.44 347.398 404.84 347.551 404.248 347.472L399.254 346.437C397.69 346.074 396.049 346.256 394.603 346.955C394.948 352.13 395.981 356.788 400.975 359.893C407.176 363.688 415.616 364.895 422.678 364.033C425.513 363.712 428.293 363.015 430.945 361.963C430.945 361.618 431.117 361.445 431.117 361.101C431.466 359.023 430.997 356.892 429.808 355.154C428.619 353.416 426.804 352.208 424.744 351.784Z" fill="#FAB9AF"/>
<path d="M377.034 363.515C379.445 361.273 388.746 352.304 390.468 349.888V349.715C390.64 349.542 390.812 349.37 390.812 349.197C391.494 348.345 392.339 347.638 393.297 347.117C394.255 346.597 395.307 346.273 396.392 346.164C397.476 346.056 398.572 346.165 399.613 346.486C400.655 346.807 401.623 347.333 402.459 348.033C403.296 348.733 403.984 349.594 404.484 350.564C404.985 351.533 405.287 352.594 405.373 353.682C405.459 354.77 405.327 355.865 404.985 356.902C404.644 357.938 404.099 358.896 403.383 359.72C400.871 362.712 398.227 365.59 395.458 368.345C393.563 370.07 391.669 371.796 389.602 373.52C383.062 370.932 377.034 363.515 377.034 363.515Z" fill="#AAC85A"/>
<path d="M399.081 346.437L403.214 347.299C403.577 349.271 404.529 351.085 405.944 352.502C407.359 353.92 409.171 354.873 411.139 355.236C413.085 355.754 415.143 355.65 417.027 354.938C418.911 354.227 420.526 352.943 421.646 351.268L425.435 352.13C427.287 352.534 428.912 353.639 429.971 355.214C431.03 356.789 431.441 358.712 431.119 360.583C429.224 370.761 425.952 390.254 423.368 408.195C421.646 420.442 421.99 432.519 420.44 439.248C420.303 439.868 420.037 440.451 419.659 440.96C419.28 441.469 418.799 441.892 418.246 442.201C417.692 442.511 417.08 442.699 416.449 442.754C415.818 442.81 415.182 442.731 414.584 442.522C404.594 439.248 374.281 428.376 371.008 414.576C379.275 407.158 388.059 359.719 390.471 351.784C390.914 349.937 392.067 348.34 393.679 347.339C395.291 346.338 397.232 346.014 399.081 346.437Z" fill="#82BE50"/>
<path d="M416.821 338.156H417.338C419.164 338.332 420.985 337.778 422.405 336.615C423.825 335.451 424.728 333.773 424.917 331.945L425.778 321.767L418.371 321.073L416.821 338.156Z" fill="#6C9BAA"/>
<path d="M407.864 336.949L417.165 336.603L418.025 342.469C415.787 344.539 413.031 346.954 409.758 346.609C408.695 346.465 407.687 346.049 406.831 345.402L407.864 336.949Z" fill="#FA968C"/>
<path d="M409.931 343.503C412.942 343.755 415.929 342.81 418.25 340.873C420.57 338.936 422.037 336.163 422.332 333.152L423.538 320.559L404.075 318.835C404.075 318.835 403.214 328.668 403.903 335.396C404.592 340.399 406.832 343.159 409.931 343.503Z" fill="#FAB9AF"/>
<path d="M424.276 326.707L420.674 326.383L420.828 324.665L424.43 324.989L424.276 326.707Z" fill="#6C9BAA"/>
<path d="M419.232 330.394C419.059 332.808 419.925 334.879 421.47 335.052C422.848 335.224 424.739 332.119 425.087 329.704C425.259 327.289 423.709 326.253 422.331 326.253C420.782 326.081 419.404 327.978 419.232 330.394Z" fill="#FAB9AF"/>
<path d="M402.181 323.838C401.894 322.234 401.952 320.587 402.353 319.008C402.353 319.008 402.87 313.315 405.109 312.453C407.176 311.591 410.448 313.147 412.688 313.833C414.238 314.351 419.233 314.351 419.233 314.351C420.172 314.428 421.087 314.69 421.925 315.122C422.763 315.554 423.508 316.148 424.116 316.87C424.724 317.591 425.184 318.425 425.469 319.325C425.754 320.225 425.859 321.173 425.777 322.113L425.605 323.666L422.16 326.426L420.954 329.359H420.782C420.191 329.305 419.645 329.022 419.259 328.571C418.873 328.121 418.678 327.537 418.715 326.944C418.774 325.972 418.474 325.012 417.87 324.248C417.267 323.484 416.404 322.97 415.446 322.804L409.589 322.286C405.973 321.941 404.078 323.666 403.733 326.426V328.668L402.181 323.838Z" fill="#6C9BAA"/>
<path d="M433.7 363.169C420.782 402.677 378.754 414.059 332.769 369.035C332.355 368.59 332.125 368.005 332.125 367.398C332.125 366.79 332.355 366.205 332.769 365.761C333.146 365.381 333.641 365.14 334.173 365.077C334.704 365.014 335.242 365.133 335.697 365.415C370.489 388.187 403.559 397.156 418.198 358.173V358C419.749 354.032 423.882 351.445 428.016 352.48C430.154 353.188 431.937 354.694 432.996 356.684C434.054 358.675 434.306 360.997 433.7 363.169Z" fill="#FAB9AF"/>
<path d="M410.792 371.105C413.739 366.66 416.331 361.987 418.542 357.132L418.37 357.305L419.063 356.443C421.474 351.44 427.33 351.268 431.636 353.682C431.659 353.682 431.682 353.686 431.703 353.694C431.724 353.703 431.743 353.716 431.76 353.732C431.776 353.748 431.788 353.767 431.797 353.788C431.805 353.81 431.809 353.832 431.809 353.855C434.909 355.753 434.909 361.098 434.565 363.515C434.22 366.275 434.048 371.796 423.542 383.009C423.538 382.836 414.061 378.005 410.792 371.105Z" fill="#AAC85A"/>
<path d="M330.702 363.514C330.702 363.514 331.736 370.242 333.971 370.587C336.207 370.933 337.588 370.76 338.277 367.655C338.967 364.549 338.277 359.892 337.244 357.131C336.383 354.371 332.766 350.576 332.25 350.404C329.839 349.709 332.077 354.544 333.11 356.786C334.144 359.201 335.005 361.788 333.628 361.961C332.25 362.133 330.872 357.475 329.322 357.13C327.946 357.132 330.702 363.514 330.702 363.514Z" fill="#FAB9AF"/>
<path d="M112.65 180.829C111.636 183.291 111.456 186.018 112.137 188.592C112.785 190.724 112.872 192.988 112.389 195.165C111.906 197.341 110.87 199.355 109.382 201.012C109.044 198.208 108.468 195.438 107.659 192.732C106.621 189.973 107.31 182.209 112.65 180.829Z" fill="#FF8C46"/>
<path d="M105.587 177.379C105.587 177.379 112.818 181.864 111.959 188.074C111.959 188.074 115.748 185.314 116.782 175.826C117.299 169.444 105.587 177.379 105.587 177.379Z" fill="#FF640A"/>
<path d="M122.984 214.986C122.291 229.65 127.807 235.859 127.807 235.859C127.635 235.859 127.635 236.205 128.324 235.859C129.221 235.427 130.037 234.844 130.735 234.134C139.347 225.336 147.787 197.39 147.27 199.112C147.46 198.576 147.84 198.129 148.338 197.855C148.836 197.581 149.417 197.501 149.97 197.629C150.523 197.757 151.01 198.084 151.338 198.548C151.666 199.013 151.812 199.582 151.748 200.147C150.918 207.063 149.653 213.919 147.959 220.675C147.615 222.4 147.099 224.126 146.581 225.85C133.318 265.185 108.688 247.765 107.307 214.986C107.215 212.881 107.962 210.826 109.383 209.272C110.804 207.719 112.784 206.794 114.885 206.702C116.987 206.61 119.039 207.358 120.59 208.781C122.141 210.204 123.065 212.187 123.157 214.292C122.984 214.468 122.984 214.641 122.984 214.986Z" fill="#FAB9AF"/>
<path d="M91.1185 415.953L91.8119 432.168V432.514L90.7788 438.379C90.6895 438.894 90.7103 439.421 90.8397 439.927C90.9692 440.433 91.2044 440.905 91.5298 441.313C91.8551 441.721 92.2633 442.056 92.7272 442.294C93.1911 442.532 93.7003 442.669 94.221 442.696C101.452 442.868 115.406 443.214 115.751 442.523C117.818 439.249 108.52 437.693 101.627 435.281C96.9768 433.728 97.6652 419.582 98.1823 413.373C98.2154 413.098 98.1691 412.819 98.0489 412.569C97.9287 412.32 97.7396 412.11 97.504 411.965C97.2685 411.82 96.9963 411.745 96.7198 411.75C96.4432 411.755 96.1739 411.839 95.9436 411.993L91.81 414.753C91.6065 414.882 91.4374 415.059 91.317 415.268C91.1966 415.477 91.1285 415.712 91.1185 415.953Z" fill="#FA968C"/>
<path d="M101.97 439.073C105.032 439.051 108.087 438.763 111.099 438.211C114.544 439.419 116.955 440.626 115.922 442.524C115.405 443.218 99.0428 442.869 92.6705 442.697C92.3546 442.691 92.0438 442.616 91.7603 442.476C91.4768 442.337 91.2274 442.136 91.0301 441.889C90.8327 441.642 90.6921 441.355 90.6183 441.047C90.5445 440.739 90.5393 440.419 90.6031 440.109L90.9479 437.694C94.5567 438.577 98.2552 439.04 101.97 439.073Z" fill="#823264"/>
<path d="M95.2529 419.061C95.5809 419.096 95.9125 419.065 96.2286 418.971C96.5447 418.876 96.8391 418.721 97.0951 418.513C97.3511 418.304 97.5635 418.047 97.7203 417.757C97.8771 417.466 97.9751 417.148 98.0087 416.819C99.9037 393.186 108.687 367.827 109.549 362.649C110.927 354.369 108.343 347.123 103.52 346.261C98.6972 345.399 93.7027 351.436 92.1525 359.545C91.1193 365.065 90.6022 396.289 90.9469 416.473C90.9331 416.757 90.9759 417.04 91.0727 417.307C91.1696 417.574 91.3186 417.819 91.5111 418.028C91.7035 418.237 91.9356 418.405 92.1937 418.523C92.4518 418.641 92.7307 418.706 93.0143 418.715L95.2529 419.061Z" fill="#FA968C"/>
<path d="M122.983 290.198C122.29 301.066 112.649 369.552 104.209 369.034C95.7693 368.516 91.808 299.341 92.4964 288.474C93.1849 277.606 100.421 269.153 108.859 269.67C117.296 270.187 123.5 279.331 122.983 290.198Z" fill="#FA968C"/>
<path d="M110.066 287.614C109.894 298.482 100.938 358.86 92.4972 358.688C84.0566 358.516 77.6853 297.79 77.8556 286.92C78.026 276.05 86.4676 267.599 94.9073 267.772C103.52 267.772 110.237 276.744 110.066 287.614Z" fill="#FAB9AF"/>
<path d="M87.8467 252.248C87.8467 252.248 81.302 223.267 81.6457 213.434C81.7185 211.598 82.4913 209.858 83.8052 208.575C85.1191 207.291 86.8742 206.56 88.7095 206.533H92.4984C93.239 208.328 94.5111 209.853 96.1434 210.902C97.7757 211.95 99.6897 212.473 101.628 212.399C103.565 212.473 105.479 211.95 107.112 210.902C108.744 209.853 110.016 208.328 110.757 206.533H114.202C110.413 214.641 111.791 225.51 118.335 231.892C115.58 241.725 112.134 251.558 112.134 251.558C112.134 251.558 129.702 276.744 123.675 283.471C116.785 291.408 76.998 294.682 76.998 294.682C74.0679 290.367 87.8467 252.248 87.8467 252.248Z" fill="#C3417D"/>
<path d="M105.071 195.492L97.664 194.63L96.4585 198.598C98.1811 200.496 100.247 204.464 103.003 204.464C103.858 204.477 104.697 204.235 105.414 203.769L105.071 195.492Z" fill="#FA968C"/>
<path d="M105.588 201.703C103.349 202.737 97.3204 201.357 95.2531 197.045C94.0476 194.457 92.842 191.87 92.842 189.627V177.379H111.616C112.414 181.655 112.414 186.041 111.616 190.317C110.582 195.147 107.654 200.667 105.588 201.703Z" fill="#FAB9AF"/>
<path d="M91.6355 182.037H95.2521V183.589H91.6355V182.037Z" fill="#FF640A"/>
<path d="M95.9412 187.384C95.9412 189.799 94.7357 191.697 93.3578 191.697C91.9799 191.697 90.4297 188.592 90.4297 186.177C90.4297 183.762 91.9799 183.072 93.3578 183.072C94.7357 183.072 95.9412 184.97 95.9412 187.384Z" fill="#FAB9AF"/>
<path d="M97.3193 172.031H103.692C105.502 172.025 107.28 171.551 108.854 170.654C109.906 170.025 111.15 169.801 112.354 170.023C113.558 170.245 114.641 170.899 115.399 171.862C117.122 174.104 117.81 177.037 113.504 179.969C111.437 181.349 108.337 179.797 106.273 180.487H100.247C99.7822 180.494 99.3231 180.593 98.8967 180.779C98.4704 180.966 98.0856 181.236 97.7647 181.573C97.4438 181.91 97.1934 182.309 97.0282 182.744C96.8629 183.18 96.7861 183.644 96.8022 184.109C96.792 184.701 96.5529 185.265 96.1352 185.684C95.7176 186.102 95.154 186.341 94.5635 186.352H94.3921L93.5313 183.419L90.6032 180.831C90.5378 180.763 90.4883 180.682 90.4585 180.592C90.4287 180.502 90.4192 180.407 90.4308 180.314V179.106C90.4156 178.188 90.5821 177.275 90.9208 176.421C91.2594 175.568 91.7634 174.789 92.4038 174.132C93.0442 173.474 93.8082 172.95 94.6519 172.589C95.4955 172.229 96.4021 172.039 97.3193 172.031Z" fill="#FF640A"/>
<path d="M151.748 192.559C151.748 192.559 152.954 199.114 151.055 200.15C149.156 201.186 147.786 201.53 146.232 198.77C144.707 195.713 143.883 192.354 143.821 188.937C143.821 186.177 145.716 181.519 146.404 181.175C148.299 179.795 147.782 184.797 147.61 187.385C147.437 189.8 147.61 192.56 148.815 192.388C150.021 192.042 149.848 187.385 151.226 186.695C152.263 185.659 151.748 192.559 151.748 192.559Z" fill="#FAB9AF"/>
<path d="M180.683 238.448C180.683 238.448 174.31 236.722 173.104 238.62C171.898 240.346 171.553 241.894 173.965 243.623C176.929 245.348 180.209 246.461 183.61 246.897C186.365 247.069 191.189 245.517 191.534 244.999C192.912 243.101 187.918 243.273 185.506 243.273C183.094 243.273 180.339 242.928 180.683 241.721C181.026 240.513 185.677 241.026 186.539 239.823C187.572 238.448 180.683 238.448 180.683 238.448Z" fill="#FAB9AF"/>
<path d="M69.7619 325.736C69.4172 321.767 69.2449 317.628 69.2449 313.488C69.2449 276.571 83.5408 246.727 101.109 246.727C118.676 246.727 132.972 276.571 132.972 313.488C132.972 317.628 132.8 321.768 132.455 325.736C111.888 330.999 90.3292 330.999 69.7619 325.736Z" fill="#C3417D"/>
<path d="M111.957 246.037C112.614 245.911 113.222 245.601 113.71 245.143C114.197 244.685 114.545 244.098 114.713 243.449C99.557 242.755 86.4656 232.064 81.6436 218.091C82.1595 223.773 83.0223 229.419 84.227 234.996C84.7617 237.922 86.1942 240.608 88.3248 242.679C90.4555 244.751 93.1782 246.106 96.1138 246.554H96.2861C101.507 247.161 106.788 246.986 111.957 246.037Z" fill="#AA3C6E"/>
<path d="M105.759 188.592C96.2862 193.077 90.43 188.592 87.5019 193.25C87.5019 193.25 85.4345 183.762 91.1184 181.864C97.4908 179.622 108.515 178.242 111.614 172.031C111.443 171.859 115.232 184.106 105.759 188.592Z" fill="#FF8C46"/>
<path d="M94.2196 213.778V213.605C103.176 239.996 162.942 237.929 175.516 238.102C176.073 238.1 176.612 238.305 177.028 238.676C177.445 239.047 177.711 239.558 177.775 240.113C177.839 240.668 177.696 241.227 177.375 241.683C177.054 242.139 176.576 242.461 176.033 242.587C160.877 245.692 147.269 247.762 131.596 247.072C80.2684 244.311 69.9338 209.289 85.2629 207.05C86.2954 206.876 87.3525 206.914 88.3699 207.161C89.3874 207.409 90.344 207.861 91.1817 208.49C92.0193 209.119 92.7206 209.913 93.2428 210.822C93.765 211.731 94.0974 212.736 94.2196 213.778Z" fill="#FAB9AF"/>
<path d="M93.3581 344.366C89.0521 342.123 78.7175 349.886 74.9335 357.304C72.0054 362.997 63.3934 395.256 58.7437 413.369C59.7768 414.403 60.9823 415.439 62.1889 416.474C71.6617 401.639 90.7807 365.757 93.7088 359.891C97.4918 352.302 97.6681 346.436 93.3581 344.366Z" fill="#FAB9AF"/>
<path d="M60.9773 405.262L54.0879 421.306C53.4474 422.801 52.3655 424.065 50.9874 424.928C50.1954 425.567 49.4475 426.259 48.7487 426.998C48.5131 427.318 48.3719 427.698 48.3415 428.095C48.311 428.491 48.3924 428.888 48.5764 429.241C50.9874 432.515 57.5331 438.728 58.5663 439.591C59.5994 440.626 67.523 442.352 67.8667 441.662C68.3838 440.627 67.3496 439.591 65.9718 438.729C64.3251 437.653 63.0595 436.083 62.3552 434.244C61.322 431.829 60.2879 429.759 59.5994 428.206C59.1739 427.287 58.9535 426.286 58.9535 425.273C58.9535 424.26 59.1739 423.259 59.5994 422.34L63.5617 414.06L60.9773 405.262Z" fill="#FAB9AF"/>
<path d="M57.532 442.005L46.8537 431.482C46.618 431.162 46.4769 430.782 46.4464 430.385C46.416 429.989 46.4974 429.592 46.6813 429.239C47.2398 428.642 47.7577 428.008 48.2316 427.342C48.5763 426.996 49.0924 426.996 49.2648 427.342C58.0491 436.829 60.4582 439.589 64.9385 437.692C67.0059 439.072 68.9008 440.625 68.3837 441.832C68.2114 442.696 57.532 442.005 57.532 442.005Z" fill="#823264"/>
<path d="M260.601 164.096L230.115 189.627L209.963 180.829L177.927 201.53" stroke="white" stroke-width="0.779" stroke-miterlimit="10"/>
<path d="M249.406 164.096H260.599V174.447" stroke="white" stroke-width="0.779" stroke-miterlimit="10"/>
<path d="M184.472 206.015H192.567V233.961H184.472V206.015Z" fill="#0091C8"/>
<path d="M198.423 194.802H206.518V233.961H198.423V194.802Z" fill="#0091C8"/>
<path d="M212.374 198.425H220.469V233.961H212.374V198.425Z" fill="#0091C8"/>
<path d="M226.326 206.015H234.421V233.961H226.326V206.015Z" fill="#0091C8"/>
<path d="M240.277 194.802H248.372V233.961H240.277V194.802Z" fill="#0091C8"/>
<path d="M254.228 186.177H262.323V233.961H254.228V186.177Z" fill="#0091C8"/>
<g opacity="0.21">
<path d="M381.857 298.308H296.255C295.342 298.31 294.467 298.675 293.821 299.321C293.176 299.968 292.812 300.844 292.809 301.758V317.973C292.812 318.888 293.176 319.764 293.821 320.41C294.467 321.057 295.342 321.421 296.255 321.424H368.422L376.862 330.395V321.424H381.685C382.598 321.421 383.473 321.057 384.118 320.41C384.764 319.764 385.128 318.888 385.13 317.973V301.758C385.179 301.308 385.129 300.853 384.984 300.424C384.839 299.995 384.602 299.602 384.291 299.274C383.979 298.946 383.6 298.689 383.18 298.523C382.76 298.356 382.308 298.282 381.857 298.308Z" fill="#FF640A"/>
<path opacity="0.21" d="M468.665 139.945H383.063C382.15 139.948 381.275 140.312 380.63 140.959C379.984 141.605 379.621 142.481 379.618 143.396V159.611C379.621 160.525 379.984 161.401 380.63 162.048C381.275 162.695 382.15 163.059 383.063 163.062H455.231L463.671 172.032V163.062H468.494C469.407 163.059 470.282 162.695 470.927 162.048C471.573 161.401 471.936 160.525 471.939 159.611V143.396C471.972 142.949 471.911 142.5 471.761 142.078C471.61 141.655 471.373 141.269 471.065 140.944C470.757 140.62 470.384 140.363 469.971 140.191C469.557 140.019 469.113 139.935 468.665 139.945Z" fill="black"/>
<path opacity="0.21" d="M210.997 131.492H125.395C124.482 131.495 123.607 131.859 122.962 132.506C122.316 133.152 121.952 134.028 121.95 134.943V151.158C121.952 152.072 122.316 152.949 122.962 153.595C123.607 154.242 124.482 154.606 125.395 154.609H130.218V163.751L138.658 154.78H210.826C211.738 154.778 212.612 154.414 213.257 153.769C213.902 153.123 214.267 152.248 214.271 151.335V135.114C214.307 134.658 214.249 134.2 214.102 133.767C213.954 133.334 213.72 132.936 213.414 132.596C213.107 132.257 212.735 131.984 212.319 131.794C211.904 131.605 211.454 131.502 210.997 131.492Z" fill="black"/>
</g>
<path d="M125.394 128.905H210.996C211.909 128.907 212.784 129.272 213.429 129.918C214.075 130.565 214.439 131.441 214.441 132.355V148.571C214.439 149.485 214.075 150.361 213.429 151.008C212.784 151.654 211.909 152.019 210.996 152.021H138.829L130.39 160.992V152.021H125.566C124.654 152.019 123.779 151.654 123.133 151.008C122.488 150.361 122.124 149.485 122.121 148.571V132.355C122.088 131.908 122.149 131.46 122.299 131.037C122.45 130.615 122.687 130.229 122.995 129.905C123.303 129.58 123.676 129.323 124.089 129.151C124.502 128.978 124.947 128.895 125.394 128.905Z" fill="#ABEEFF"/>
<path d="M385.474 561.555C385.474 564.142 353.954 566.213 315.029 566.213C276.103 566.213 244.583 564.141 244.583 561.555C244.583 558.968 276.103 556.897 315.029 556.897C353.782 556.723 385.474 558.794 385.474 561.555Z" fill="#EAECEF"/>
<path d="M182.061 256.56V295.55H269.04" stroke="white" stroke-width="0.779" stroke-miterlimit="10"/>
<path d="M132.283 143.567H198.423" stroke="white" stroke-width="0.779" stroke-miterlimit="10"/>
<path d="M132.283 136.323H160.186" stroke="white" stroke-width="0.779" stroke-miterlimit="10"/>
<path d="M302.283 301.93H323.296" stroke="white" stroke-width="0.779" stroke-miterlimit="10"/>
<path d="M302.283 310.555H373.934" stroke="white" stroke-width="0.779" stroke-miterlimit="10"/>
<path d="M259.395 508.593C260.574 510.17 262.034 511.516 263.701 512.562C265.084 513.513 266.591 514.267 268.18 514.804L266.285 519.117C266.149 519.409 265.953 519.67 265.711 519.883C265.469 520.096 265.185 520.257 264.878 520.354C264.57 520.451 264.246 520.484 263.926 520.449C263.605 520.414 263.295 520.313 263.016 520.151C257.504 516.529 243.381 507.386 243.381 506.524C243.377 502.557 251.989 506.868 259.395 508.593Z" fill="#46738C"/>
<path d="M324.714 140.95L324.706 283.419L433.563 283.43L433.572 140.962L324.714 140.95Z" fill="#CCB7A3"/>
<path opacity="0.09" d="M422.93 160.754L388.694 167.801C383.154 168.938 377.431 168.935 371.891 167.805L337.645 160.734C330.855 159.584 325.851 153.437 325.853 146.214L325.846 141.873L433.489 140.963L433.645 146.484C433.66 153.686 429.736 159.597 422.93 160.754Z" fill="#272525"/>
<path d="M421.707 159.83L387.471 166.877C381.931 168.013 376.208 168.011 370.668 166.881L336.424 159.829C329.632 158.66 324.628 152.513 324.631 145.309L324.624 140.968L433.491 140.983L433.498 145.323C433.494 152.527 428.493 158.674 421.707 159.83Z" fill="#D3BFAF"/>
<path d="M379.751 192.885C375.008 192.884 371.14 189.032 371.14 184.287L371.15 163.655C371.15 158.91 375.001 155.041 379.744 155.042C384.488 155.043 388.355 158.895 388.355 163.64L388.346 184.272C388.366 189.034 384.494 192.885 379.751 192.885ZM379.765 155.809C375.425 155.815 371.912 159.332 371.9 163.674L371.889 184.287C371.896 188.628 375.412 192.142 379.752 192.155C384.092 192.148 387.605 188.632 387.617 184.289L387.627 163.657C387.621 159.335 384.085 155.803 379.765 155.809Z" fill="#F9DD82"/>
<path d="M386.01 166.122C388.969 162.669 388.57 157.47 385.118 154.509C381.666 151.549 376.468 151.948 373.509 155.401C370.549 158.854 370.948 164.053 374.401 167.014C377.853 169.975 383.05 169.576 386.01 166.122Z" fill="#AA7355"/>
<path d="M383.764 162.075C384.491 159.864 383.288 157.483 381.078 156.756C378.868 156.029 376.487 157.232 375.76 159.443C375.034 161.653 376.236 164.035 378.446 164.762C380.657 165.489 383.037 164.286 383.764 162.075Z" fill="#BDB39B"/>
<path d="M381.721 160.768C381.727 161.844 380.835 162.738 379.759 162.725C378.684 162.73 377.789 161.839 377.803 160.762C377.797 159.687 378.688 158.792 379.765 158.805C380.84 158.8 381.714 159.674 381.721 160.768Z" fill="#434244"/>
<path d="M386.001 192.097C388.961 188.644 388.562 183.445 385.109 180.484C381.657 177.524 376.46 177.923 373.5 181.376C370.541 184.829 370.94 190.028 374.392 192.989C377.844 195.949 383.042 195.55 386.001 192.097Z" fill="#AA7355"/>
<path d="M380.709 190.845C382.976 190.32 384.387 188.056 383.861 185.789C383.335 183.522 381.072 182.11 378.805 182.636C376.539 183.162 375.128 185.426 375.654 187.693C376.18 189.96 378.443 191.371 380.709 190.845Z" fill="#BDB39B"/>
<path d="M381.718 186.74C381.724 187.815 380.832 188.71 379.756 188.697C378.681 188.702 377.787 187.81 377.8 186.734C377.794 185.658 378.686 184.764 379.762 184.777C380.839 184.791 381.712 185.665 381.718 186.74Z" fill="#434244"/>
<path d="M409.018 131.624L307.377 139.431L318.147 279.661L419.788 271.855L409.018 131.624Z" fill="#FFFFF5"/>
<path d="M340.753 164.933C359.748 163.474 378.744 162.015 397.74 160.556C399.286 160.437 399.101 158.031 397.555 158.15C378.559 159.609 359.564 161.068 340.568 162.527C339.022 162.645 339.206 165.052 340.753 164.933Z" fill="#BBBCBF"/>
<path d="M323.844 180.562C348.834 178.643 373.843 176.722 398.833 174.803C400.38 174.684 400.195 172.278 398.648 172.396C373.658 174.316 348.649 176.236 323.659 178.156C322.112 178.275 322.297 180.681 323.844 180.562Z" fill="#BBBCBF"/>
<path d="M324.938 194.808C349.929 192.889 374.938 190.968 399.928 189.049C401.474 188.93 401.29 186.524 399.743 186.643C374.753 188.562 349.744 190.483 324.754 192.402C323.207 192.521 323.392 194.927 324.938 194.808Z" fill="#BBBCBF"/>
<path d="M326.032 209.055C351.023 207.136 376.032 205.215 401.022 203.296C402.568 203.177 402.384 200.771 400.837 200.889C375.847 202.809 350.838 204.729 325.848 206.649C324.301 206.767 324.486 209.174 326.032 209.055Z" fill="#BBBCBF"/>
<path d="M327.126 223.301C352.117 221.382 377.126 219.461 402.116 217.542C403.662 217.423 403.478 215.017 401.931 215.136C376.941 217.055 351.932 218.976 326.942 220.895C325.395 221.014 325.58 223.42 327.126 223.301Z" fill="#BBBCBF"/>
<path d="M331.533 258.923C342.224 258.102 352.896 257.283 363.587 256.462C364.465 256.394 364.361 255.038 363.483 255.106C352.792 255.927 342.12 256.746 331.429 257.568C330.57 257.634 330.674 258.989 331.533 258.923Z" fill="#51927E"/>
<path d="M356.93 250.807C355.817 251.315 354.664 251.557 353.434 251.536L353.225 251.072C353.064 250.719 352.466 250.688 352.404 251.135C352.396 251.27 352.205 252.533 351.68 251.959C351.385 251.617 351.495 251.051 351.503 250.647C351.526 250.204 351.465 249.651 351.15 249.31C350.775 248.917 349.788 248.57 349.391 249.157C348.77 250.069 349.889 251.136 349.157 252.114C348.721 252.686 347.836 252.408 347.363 252.002C347.861 250.985 347.661 249.886 347.069 248.932C346.895 248.658 346.437 248.693 346.306 248.991C345.953 249.902 345.814 251.084 346.248 251.992C345.887 252.289 345.357 252.387 344.918 252.171C345.574 250.968 345.749 249.495 345.234 248.036C345.089 247.644 344.591 247.663 344.385 247.986C343.771 248.993 343.219 250.054 343.389 251.27C343.438 251.651 343.578 251.986 343.774 252.278C343.163 253.074 342.267 253.662 341.188 253.86C341.164 253.804 341.139 253.729 341.116 253.673C341.02 253.431 340.925 253.188 340.81 252.948C340.765 252.356 340.719 251.764 340.713 251.188C340.797 251.028 340.882 250.887 340.985 250.725C341.427 249.98 341.789 249.184 342.11 248.372C343.399 245.142 343.718 241.544 343.072 238.136C343.003 237.738 342.589 237.597 342.285 237.889C341.406 238.706 341.07 239.827 340.811 240.961C340.465 242.447 340.216 243.965 340.044 245.476C339.837 247.279 339.766 249.109 339.828 250.91C339.794 250.97 339.759 251.011 339.725 251.071C339.283 251.816 339.628 252.558 339.951 253.263C339.98 253.645 340.029 254.026 340.058 254.408C340.077 254.656 340.281 254.813 340.531 254.813L340.55 254.812C340.803 255.599 340.999 256.41 341.158 257.224C341.606 259.552 341.541 261.958 341.085 264.279C340.195 263.944 339.732 259.408 339.645 258.781C339.465 257.181 339.459 255.606 339.452 254.012C339.579 253.926 339.646 253.786 339.593 253.598L339.427 252.939C339.32 252.543 338.671 252.593 338.625 253C338.428 254.936 338.542 256.925 338.748 258.85C338.845 259.86 339.018 260.865 339.209 261.849C339.367 262.663 339.49 263.518 339.874 264.257C340.323 265.106 341.659 265.753 341.944 264.463C342.326 262.686 342.415 260.835 342.274 259.001C342.161 257.531 341.858 256.094 341.424 254.687C342.635 254.459 343.661 253.804 344.398 252.903C344.58 253.023 344.778 253.104 344.994 253.164C345.564 253.332 346.256 253.086 346.743 252.684C346.846 252.772 346.947 252.841 347.068 252.909C348.172 253.535 349.845 253.31 350.156 251.865C350.312 251.142 350.202 250.459 350.014 249.763C350.142 249.676 350.278 249.704 350.403 249.829C350.667 250.02 350.588 250.737 350.57 251.007C350.563 251.411 350.56 251.872 350.799 252.238C351.105 252.714 351.533 253.046 352.124 252.982C352.485 252.935 352.713 252.648 352.879 252.309C352.939 252.343 353.017 252.356 353.093 252.35C354.501 252.434 355.845 252.177 357.126 251.598C357.706 251.4 357.431 250.576 356.93 250.807ZM340.924 245.927C341.055 244.63 341.262 243.327 341.509 242.04C341.703 241.065 341.894 240.051 342.405 239.205C342.845 242.687 342.244 246.114 340.739 249.265C340.768 248.148 340.818 247.05 340.924 245.927ZM344.655 249.502C344.706 250.17 344.585 250.833 344.323 251.429C344.144 250.847 344.358 250.139 344.655 249.502Z" fill="#3B464C"/>
<path d="M359.244 252.435C358.767 252.471 358.824 253.216 359.302 253.179C359.779 253.143 359.722 252.398 359.244 252.435Z" fill="#3B464C"/>
<path d="M500.702 169.789C500.702 169.789 507.247 171.514 508.452 169.616C509.658 167.718 510.175 166.342 507.419 164.441C504.836 162.543 500.357 161.336 497.429 161.167C494.673 160.995 489.679 162.547 489.334 163.065C487.784 164.963 492.951 164.791 495.535 164.963C498.119 164.963 500.874 165.308 500.53 166.516C500.185 167.723 495.363 167.21 494.501 168.414C493.638 169.789 500.702 169.789 500.702 169.789Z" fill="#FAB9AF"/>
<path d="M513.617 208.257C513.558 206.187 512.698 204.221 511.22 202.773C509.742 201.325 507.76 200.509 505.693 200.495H504.659C503.725 200.506 502.813 200.208 502.066 199.646C501.318 199.085 500.777 198.291 500.526 197.39L497.6 187.039L488.299 188.246L487.954 196.354C487.937 197.492 487.477 198.579 486.673 199.384C485.87 200.189 484.785 200.649 483.648 200.667H479.86C479.045 200.685 478.235 200.801 477.448 201.012C477.793 214.296 490.883 222.576 503.112 217.573C507.05 215.998 510.669 213.719 513.79 210.845C513.819 209.979 513.761 209.112 513.617 208.257Z" fill="#FAB9AF"/>
<path d="M411.826 241.034C409.759 239.136 412.343 235.859 414.582 237.412C426.983 245.174 438.178 246.727 449.374 237.412C459.364 229.475 467.976 214.641 471.761 205.671C472.16 204.663 472.755 203.745 473.511 202.969C474.267 202.194 475.169 201.576 476.165 201.151C477.162 200.727 478.232 200.504 479.314 200.497C480.396 200.489 481.47 200.697 482.471 201.108C483.473 201.518 484.384 202.123 485.151 202.889C485.917 203.654 486.525 204.564 486.938 205.566C487.352 206.568 487.563 207.642 487.559 208.726C487.555 209.81 487.337 210.883 486.916 211.882C482.443 223.094 448.513 274.5 411.826 241.034Z" fill="#FA968C"/>
<path d="M462.291 222.919C464.176 220.145 465.901 217.265 467.458 214.294C469.066 211.449 470.504 208.511 471.764 205.496V205.323C471.936 205.15 471.936 204.978 472.108 204.628C472.606 203.677 473.286 202.833 474.109 202.145C474.932 201.456 475.883 200.937 476.907 200.617C477.93 200.296 479.007 200.181 480.075 200.277C481.143 200.374 482.182 200.68 483.132 201.178C484.082 201.677 484.925 202.358 485.612 203.182C486.299 204.007 486.817 204.959 487.137 205.984C487.457 207.009 487.572 208.088 487.476 209.158C487.38 210.227 487.074 211.268 486.577 212.219C484.81 215.695 482.795 219.039 480.548 222.225L475.897 228.435C474.692 227.406 465.219 223.956 462.291 222.919Z" fill="#FA870A"/>
<path d="M493.81 416.474V431.653L495.188 439.416C495.252 439.726 495.247 440.046 495.173 440.353C495.099 440.661 494.959 440.949 494.761 441.196C494.564 441.443 494.315 441.643 494.031 441.783C493.748 441.922 493.437 441.998 493.121 442.003C486.576 442.176 469.697 442.698 469.18 442.003C467.113 438.553 476.586 437.173 483.648 434.585C487.437 433.032 487.782 424.58 487.265 417.161C487.219 416.442 487.401 415.726 487.786 415.117C488.17 414.507 488.737 414.034 489.406 413.767C490.074 413.499 490.81 413.45 491.508 413.626C492.206 413.802 492.831 414.194 493.293 414.747C493.621 415.264 493.8 415.861 493.81 416.474Z" fill="#FA968C"/>
<path d="M483.648 434.587C485.547 435.165 487.521 435.455 489.505 435.449C491.191 435.412 492.867 435.179 494.499 434.755L495.36 439.413C495.424 439.723 495.419 440.043 495.345 440.351C495.271 440.658 495.13 440.946 494.933 441.193C494.736 441.44 494.486 441.641 494.203 441.78C493.919 441.92 493.609 441.995 493.293 442C486.748 442.173 469.869 442.695 469.352 442C467.114 438.727 476.587 437.347 483.648 434.587Z" fill="#965028"/>
<path d="M500.871 355.407C504.317 363.169 532.907 423.72 535.318 421.995C537.386 420.443 520.85 355.92 517.406 347.99C513.961 340.228 507.416 335.397 502.938 337.467C498.289 339.536 497.428 347.644 500.871 355.407Z" fill="#41B4E6"/>
<path d="M470.384 285.541C470.211 296.752 474.517 367.655 483.129 367.999C491.741 368.171 501.554 297.443 501.731 286.403C501.904 275.192 495.187 266.047 486.402 265.702C477.792 265.357 470.558 274.33 470.384 285.541Z" fill="#0091C8"/>
<path d="M495.189 353.164C496.05 359.374 496.222 398.702 494.844 418.889H486.919C482.613 399.396 478.135 361.789 477.274 355.751V355.579C472.624 334.705 470.212 293.994 470.385 285.713C470.557 274.502 477.964 265.53 486.575 265.871C495.187 266.044 502.076 275.359 501.904 286.572C501.562 293.131 494.672 350.231 495.189 353.164Z" fill="#1C9585"/>
<path d="M496.736 335.567C498.631 317.282 501.73 290.716 501.902 286.061C502.075 274.85 495.358 265.704 486.573 265.36C477.961 265.187 470.724 274.158 470.384 285.202C470.384 286.755 470.384 289.343 470.556 292.62C481.749 300.728 489.674 313.321 490.708 327.294C492.536 330.18 494.549 332.943 496.736 335.567Z" fill="#177D74"/>
<path d="M485.542 283.299C485.37 294.51 495.36 358.684 503.967 358.857C512.574 359.029 518.263 295.029 518.608 283.816C518.78 272.605 510.513 263.632 501.728 263.459C492.95 263.115 485.716 272.088 485.542 283.299Z" fill="#41B4E6"/>
<path d="M533.081 432.69C536.697 433.208 542.038 429.068 542.898 427.343L538.765 421.305L534.802 410.437C534.618 409.945 534.289 409.522 533.858 409.223C533.427 408.923 532.915 408.763 532.391 408.763C531.867 408.763 531.355 408.923 530.924 409.223C530.493 409.522 530.163 409.945 529.979 410.437C529.432 411.954 529.494 413.623 530.152 415.095L532.39 420.615C533.473 423.232 533.887 426.078 533.596 428.895L533.081 432.69Z" fill="#FAB9AF"/>
<path d="M527.913 436.485C529.98 435.45 531.875 434.587 532.736 432.517C534.574 431.874 536.267 430.872 537.716 429.569C539.165 428.266 540.341 426.688 541.176 424.926C542.045 425.538 542.803 426.297 543.414 427.168C544.108 428.203 545.137 429.583 545.825 430.619C546.053 430.957 546.161 431.363 546.129 431.77C546.098 432.177 545.93 432.561 545.653 432.861L534.285 442.176C534.285 442.176 522.573 442.348 522.398 442.003C521.368 440.625 524.986 437.865 527.913 436.485Z" fill="#965028"/>
<path d="M517.408 347.989C519.476 352.82 531.359 394.048 536.01 413.887C533.427 414.749 532.221 415.612 529.638 416.647C521.543 400.773 502.424 366.445 498.807 358.684C492.263 349.024 485.201 293.476 485.373 283.126C485.546 271.915 492.952 262.942 501.563 263.284C510.175 263.456 518.615 272.599 518.442 283.64C518.269 291.063 516.03 344.711 517.408 347.989Z" fill="#39AE96"/>
<path d="M479.516 200.495H483.649C484.427 202.347 485.751 203.918 487.444 204.997C489.136 206.076 491.117 206.612 493.122 206.533C495.18 206.538 497.19 205.912 498.883 204.74C500.576 203.569 501.871 201.907 502.595 199.977L506.384 200.495C507.323 200.482 508.255 200.655 509.127 201.004C510 201.352 510.794 201.87 511.466 202.527C512.138 203.184 512.674 203.968 513.042 204.833C513.411 205.698 513.606 206.628 513.615 207.568C513.96 217.746 514.648 237.585 515.682 255.525C516.715 271.74 521.194 286.749 518.093 291.062C518.093 291.062 478.996 297.273 469.006 288.302C469.699 273.467 471.244 215.679 471.934 207.395C472.148 205.52 473.034 203.787 474.429 202.517C475.824 201.248 477.631 200.529 479.516 200.495Z" fill="#FFA50A"/>
<path d="M405.453 236.204C405.453 236.204 410.276 241.034 412.17 240.172C414.065 239.137 415.27 238.102 413.892 235.341C412.273 232.227 409.978 229.515 407.175 227.405C407.175 227.405 405.28 227.75 404.764 227.922C402.526 228.785 401.319 229.648 403.559 231.028C405.626 232.408 408.037 232.753 407.175 233.443C406.314 234.305 402.352 231.372 400.974 232.063C399.424 232.58 405.453 236.204 405.453 236.204Z" fill="#FA968C"/>
<path d="M510.862 201.185C529.98 206.187 550.133 200.15 526.536 181.342C518.269 174.96 506.725 169.437 507.934 169.957C505.523 168.749 506.901 164.954 509.485 165.644C517.072 167.386 524.418 170.051 531.358 173.581C569.078 193.247 545.137 227.404 506.556 216.88C504.481 216.303 502.718 214.927 501.653 213.052C500.588 211.177 500.308 208.956 500.872 206.875C501.14 205.834 501.613 204.859 502.264 204.005C502.915 203.152 503.731 202.439 504.663 201.908C505.595 201.376 506.624 201.039 507.689 200.914C508.754 200.789 509.833 200.88 510.862 201.182V201.185Z" fill="#FAB9AF"/>
<path d="M524.3 202.738C519.705 202.834 515.12 202.253 510.694 201.012H510.521C508.397 200.44 506.133 200.737 504.227 201.837C502.322 202.937 500.93 204.75 500.359 206.878C499.788 209.005 500.084 211.273 501.183 213.182C502.281 215.09 504.091 216.484 506.215 217.056C513.207 219.073 520.554 219.544 527.745 218.436C527.745 218.436 527.569 206.705 524.3 202.738Z" fill="#FA870A"/>
<path d="M497.255 188.764H497.772C499.597 188.759 501.347 188.03 502.637 186.737C503.928 185.444 504.656 183.693 504.661 181.864V171.686H497.255V188.764Z" fill="#3C5A73"/>
<path d="M488.299 188.246L497.6 187.039L499.495 193.421C497.427 195.836 494.328 199.459 491.055 199.459C490.02 199.439 489.009 199.141 488.127 198.597L488.299 188.246Z" fill="#FA968C"/>
<path d="M490.885 194.457C492.378 194.459 493.857 194.165 495.236 193.593C496.616 193.022 497.87 192.183 498.926 191.126C499.982 190.068 500.819 188.812 501.39 187.43C501.961 186.048 502.254 184.567 502.252 183.072V170.479H482.96C482.96 170.479 482.96 180.311 484.338 187.039C485.371 192.042 487.783 194.457 490.885 194.457Z" fill="#FAB9AF"/>
<path d="M503.186 177.099H499.569V175.374H503.186V177.099Z" fill="#3C5A73"/>
<path d="M498.978 180.829C498.978 183.244 500.183 185.315 501.561 185.315C502.939 185.315 504.661 182.041 504.661 179.622C504.711 179.194 504.667 178.761 504.531 178.353C504.395 177.945 504.171 177.571 503.876 177.259C503.58 176.946 503.219 176.703 502.819 176.546C502.419 176.388 501.99 176.321 501.561 176.348C500.183 176.344 498.978 178.242 498.978 180.829Z" fill="#FAB9AF"/>
<path d="M481.584 175.653C481.067 174.101 480.034 168.926 482.277 164.786C485.546 165.648 487.961 164.958 491.062 164.958H497.606C498.536 164.949 499.458 165.125 500.319 165.477C501.18 165.828 501.962 166.349 502.619 167.007C503.277 167.666 503.796 168.449 504.147 169.311C504.498 170.173 504.674 171.097 504.664 172.028V173.581L501.395 176.514L500.535 179.446H500.362C499.762 179.413 499.193 179.171 498.753 178.761C498.312 178.352 498.029 177.801 497.951 177.204C497.779 175.134 496.401 173.409 494.335 173.409H488.478C484.862 173.409 483.139 175.307 483.139 177.895L483.312 180.137L481.584 175.653Z" fill="#3C5A73"/>
<path d="M401.492 237.756L398.046 238.619L398.907 235.168L410.794 223.262C410.854 223.182 410.932 223.117 411.022 223.072C411.112 223.027 411.21 223.004 411.311 223.004C411.411 223.004 411.51 223.027 411.599 223.072C411.689 223.117 411.767 223.182 411.827 223.262L413.202 224.643C413.282 224.704 413.347 224.782 413.392 224.872C413.437 224.961 413.46 225.06 413.46 225.161C413.46 225.261 413.437 225.36 413.392 225.45C413.347 225.54 413.282 225.618 413.202 225.678L401.492 237.756Z" fill="#0E5499"/>
<path d="M399.08 235.341L398.219 238.615L401.488 237.752L399.08 235.341Z" fill="#DCBE82"/>
<path d="M398.563 237.411L398.219 238.618L399.424 238.273L398.563 237.411Z" fill="#50555A"/>
<path d="M412.858 226.543L413.552 225.849C413.632 225.789 413.697 225.711 413.742 225.621C413.787 225.531 413.81 225.432 413.81 225.332C413.81 225.231 413.787 225.132 413.742 225.042C413.697 224.953 413.632 224.874 413.552 224.814L412.174 223.434C412.114 223.354 412.036 223.289 411.946 223.244C411.856 223.199 411.757 223.176 411.657 223.176C411.557 223.176 411.458 223.199 411.368 223.244C411.279 223.289 411.201 223.354 411.141 223.434L410.447 224.129L412.858 226.543Z" fill="#FFA50A"/>
<path d="M410.268 224.025L412.704 226.465L411.973 227.196L409.537 224.756L410.268 224.025Z" fill="#50555A"/>
<path d="M414.062 235.169C413.252 233.437 412.145 231.861 410.793 230.511C410.818 230.865 410.769 231.221 410.651 231.555C410.532 231.89 410.345 232.196 410.103 232.455C409.86 232.715 409.567 232.921 409.241 233.061C408.915 233.201 408.564 233.273 408.21 233.271C407.912 233.297 407.613 233.237 407.349 233.098C407.349 233.271 407.349 233.271 407.176 233.443C406.316 234.305 402.353 231.373 400.975 232.063C399.598 232.754 405.626 236.376 405.626 236.376C405.626 236.376 410.449 241.207 412.343 240.345C414.236 239.136 415.27 238.101 414.062 235.169Z" fill="#FA968C"/>
</svg>
