<svg width="20" height="20" viewBox="0 0 20 20" fill="none" xmlns="http://www.w3.org/2000/svg">
<path d="M16.2592 14.5569H15.6434V9.99968C15.6419 8.74147 15.2581 7.51707 14.5487 6.50703C13.8394 5.49699 12.8419 4.75477 11.7034 4.38981C11.8253 4.13016 11.8886 3.84414 11.8884 3.55424C11.8884 3.05363 11.7004 2.5735 11.3657 2.21951C11.031 1.86553 10.577 1.66667 10.1037 1.66667C9.63038 1.66667 9.17642 1.86553 8.84173 2.21951C8.50703 2.5735 8.31901 3.05363 8.31901 3.55424C8.3188 3.84414 8.38215 4.13015 8.50405 4.38981C7.36556 4.75477 6.36806 5.49699 5.65867 6.50703C4.94929 7.51707 4.56553 8.74147 4.56401 9.99968V14.5569H3.94892C3.86806 14.5569 3.78804 14.5738 3.71334 14.6065C3.63864 14.6392 3.57067 14.6872 3.51349 14.7476C3.45632 14.8081 3.41096 14.8799 3.38002 14.9589C3.34908 15.038 3.33325 15.1226 3.33325 15.2081C3.33325 15.2936 3.34908 15.3783 3.38002 15.4573C3.41096 15.5363 3.45632 15.6082 3.51349 15.6686C3.57067 15.7291 3.63864 15.7771 3.71334 15.8098C3.78804 15.8425 3.86806 15.8593 3.94892 15.8593H7.09116C7.23299 16.5589 7.59723 17.1861 8.12309 17.6362C8.64894 18.0864 9.30461 18.3324 9.98113 18.3333H10.2275C10.904 18.3324 11.5598 18.0864 12.0856 17.6362C12.6115 17.1861 12.9757 16.5589 13.1176 15.8593H16.2598C16.423 15.8592 16.5795 15.7905 16.6948 15.6684C16.8101 15.5463 16.8749 15.3807 16.8749 15.2081C16.8749 15.1226 16.8589 15.038 16.828 14.9589C16.797 14.8799 16.7517 14.8081 16.6945 14.7476C16.6373 14.6872 16.5695 14.6392 16.4948 14.6065C16.4201 14.5738 16.3401 14.5569 16.2592 14.5569ZM9.54686 3.55363C9.54718 3.39837 9.60573 3.24958 9.70953 3.1398C9.81333 3.03002 9.95401 2.96816 10.1008 2.96783C10.2476 2.968 10.3884 3.02975 10.4922 3.13957C10.5961 3.24939 10.6544 3.39832 10.6546 3.55363C10.6544 3.70893 10.5961 3.85787 10.4922 3.96768C10.3884 4.0775 10.2476 4.13926 10.1008 4.13942C9.95396 4.13926 9.81322 4.0775 9.70939 3.96768C9.60555 3.85787 9.54702 3.70893 9.54686 3.55363ZM10.224 17.0302H9.97764C9.62861 17.0301 9.28785 16.918 9.00033 16.7087C8.71281 16.4994 8.49204 16.2028 8.36723 15.8581H11.8337C11.7091 16.2025 11.4889 16.4988 11.202 16.7082C10.9151 16.9175 10.5749 17.0301 10.2263 17.0309L10.224 17.0302ZM5.79186 14.5563V9.99907C5.79312 8.79083 6.2475 7.63243 7.05529 6.77808C7.86308 5.92372 8.95841 5.44315 10.1008 5.44181C11.2432 5.44315 12.3384 5.92372 13.1462 6.77808C13.954 7.63243 14.4083 8.79083 14.4096 9.99907V14.5563H5.79186Z" fill="#ACACAE" stroke="#ACACAE" stroke-width="0.2"/>
</svg>
