<svg width="16" height="20" viewBox="0 0 16 20" fill="none" xmlns="http://www.w3.org/2000/svg">
<path d="M13.69 1.539H11.8402V0.781249C11.8402 0.349731 11.4999 0 11.0801 0H5.10026C4.68041 0 4.34014 0.349731 4.34014 0.781249V1.539H2.49062C1.44279 1.539 0.590332 2.41516 0.590332 3.49212V18.0469C0.590332 19.1238 1.44279 20 2.49062 20H13.69C14.7378 20 15.5903 19.1238 15.5903 18.0469V3.49212C15.5903 2.41516 14.7377 1.539 13.69 1.539ZM10.32 1.5625V3.07815H5.86022C5.86022 2.5589 5.86022 2.12997 5.86022 1.5625H10.32ZM14.0701 18.0469C14.0701 18.2623 13.8995 18.4375 13.69 18.4375H2.49062C2.281 18.4375 2.11056 18.2623 2.11056 18.0469V3.49212C2.11056 3.27682 2.281 3.1015 2.49062 3.1015H4.33999V3.8594C4.33999 4.29092 4.68041 4.64065 5.10011 4.64065H11.0801C11.4998 4.64065 11.8402 4.29092 11.8402 3.8594V3.1015H13.69C13.8995 3.1015 14.0701 3.27682 14.0701 3.49212V18.0469ZM11.6174 9.12185C11.9143 9.42702 11.9143 9.92171 11.6174 10.2267L7.62289 14.3323C7.32612 14.6374 6.84481 14.6374 6.54789 14.3323L4.56283 12.292C4.26606 11.987 4.26606 11.4923 4.56283 11.1871C4.85975 10.8821 5.34091 10.8821 5.63783 11.1871L7.08547 12.675L10.5424 9.122C10.8393 8.81682 11.3204 8.81682 11.6174 9.12185Z" fill="white"/>
</svg>
