<svg width="20" height="20" viewBox="0 0 20 20" fill="none" xmlns="http://www.w3.org/2000/svg">
<path d="M10.2381 1C8.60877 1 7.01601 1.50047 5.66126 2.43813C4.30651 3.37578 3.25062 4.70851 2.62709 6.26777C2.00357 7.82703 1.84043 9.5428 2.1583 11.1981C2.47617 12.8534 3.26077 14.3739 4.41289 15.5673C5.56501 16.7607 7.0329 17.5734 8.63094 17.9027C10.229 18.232 11.8854 18.063 13.3907 17.4171C14.896 16.7712 16.1826 15.6775 17.0878 14.2742C17.9931 12.8709 18.4762 11.2211 18.4762 9.53333C18.4762 7.27015 17.6083 5.09967 16.0633 3.49936C14.5184 1.89905 12.423 1 10.2381 1ZM10.2381 16.36C8.93464 16.36 7.66043 15.9596 6.57663 15.2095C5.49283 14.4594 4.64811 13.3932 4.1493 12.1458C3.65048 10.8984 3.51996 9.52576 3.77426 8.20152C4.02856 6.87727 4.65624 5.66088 5.57793 4.70615C6.49963 3.75142 7.67394 3.10125 8.95237 2.83784C10.2308 2.57443 11.5559 2.70962 12.7602 3.22632C13.9644 3.74301 14.9937 4.618 15.7179 5.74064C16.4421 6.86328 16.8286 8.18315 16.8286 9.53333C16.8262 11.3431 16.1311 13.0781 14.8957 14.3578C13.6602 15.6375 11.9853 16.3575 10.2381 16.36Z" fill="#ACACAE"/>
<path d="M7.84122 9.53284C8.10784 9.53284 8.36847 9.61473 8.59016 9.76817C8.81184 9.9216 8.98463 10.1397 9.08666 10.3948C9.18869 10.65 9.21538 10.9307 9.16337 11.2016C9.11135 11.4725 8.98297 11.7213 8.79444 11.9166C8.60591 12.1119 8.36571 12.2449 8.10421 12.2987C7.84271 12.3526 7.57166 12.325 7.32534 12.2193C7.07902 12.1136 6.86848 11.9346 6.72035 11.705C6.57223 11.4753 6.49316 11.2054 6.49316 10.9292C6.49316 10.5589 6.63519 10.2037 6.888 9.94182C7.14081 9.67995 7.48369 9.53284 7.84122 9.53284V9.53284Z" fill="#ACACAE"/>
<path d="M10.4626 8.44702C11.2071 8.44702 11.8106 7.82185 11.8106 7.05066C11.8106 6.27947 11.2071 5.6543 10.4626 5.6543C9.71805 5.6543 9.1145 6.27947 9.1145 7.05066C9.1145 7.82185 9.71805 8.44702 10.4626 8.44702Z" fill="#ACACAE"/>
<path d="M13.0836 12.3254C13.8282 12.3254 14.4317 11.7003 14.4317 10.9291C14.4317 10.1579 13.8282 9.53271 13.0836 9.53271C12.3391 9.53271 11.7356 10.1579 11.7356 10.9291C11.7356 11.7003 12.3391 12.3254 13.0836 12.3254Z" fill="#ACACAE"/>
</svg>
