<svg width="20" height="20" viewBox="0 0 20 20" fill="none" xmlns="http://www.w3.org/2000/svg">
<path d="M16.4468 4.45579L13.2452 1.42693C12.8861 1.08719 12.4158 0.9 11.9215 0.9H5.82617C4.76399 0.9 3.9 1.76399 3.9 2.82617V16.1738C3.9 17.236 4.76399 18.1 5.82617 18.1H15.123C16.1852 18.1 17.0492 17.236 17.0492 16.1738V5.85503C17.0492 5.32787 16.8297 4.81806 16.4468 4.45579ZM12.8656 2.71432L15.1594 4.88438H12.9316C12.8953 4.88438 12.8656 4.85467 12.8656 4.81836V2.71432ZM15.123 16.9039H5.82617C5.4237 16.9039 5.09609 16.5763 5.09609 16.1738V2.82617C5.09609 2.4237 5.4237 2.09609 5.82617 2.09609H11.6695V4.81836C11.6695 5.51437 12.2356 6.08047 12.9316 6.08047H15.8531V16.1738C15.8531 16.5763 15.5255 16.9039 15.123 16.9039Z" fill="#ACACAE" stroke="#ACACAE" stroke-width="0.2"/>
<path d="M13.58 7.9H7.42C7.11752 7.9 6.9 8.18441 6.9 8.49805C6.9 8.81168 7.11752 9.09609 7.42 9.09609H13.58C13.8825 9.09609 14.1 8.81168 14.1 8.49805C14.1 8.18441 13.8825 7.9 13.58 7.9Z" fill="#ACACAE" stroke="#ACACAE" stroke-width="0.2"/>
<path d="M13.58 10.9H7.42C7.11752 10.9 6.9 11.1844 6.9 11.498C6.9 11.8117 7.11752 12.0961 7.42 12.0961H13.58C13.8825 12.0961 14.1 11.8117 14.1 11.498C14.1 11.1844 13.8825 10.9 13.58 10.9Z" fill="#ACACAE" stroke="#ACACAE" stroke-width="0.2"/>
<path d="M8.58 13.9H7.42C7.11752 13.9 6.9 14.1844 6.9 14.498C6.9 14.8117 7.11752 15.0961 7.42 15.0961H8.58C8.88248 15.0961 9.1 14.8117 9.1 14.498C9.1 14.1844 8.88248 13.9 8.58 13.9Z" fill="#ACACAE" stroke="#ACACAE" stroke-width="0.2"/>
</svg>
