<svg width="20" height="20" viewBox="0 0 20 20" fill="none" xmlns="http://www.w3.org/2000/svg">
<path d="M14.2296 2H4.70455C4.21803 1.9999 3.73626 2.09565 3.28676 2.28179C2.83726 2.46792 2.42883 2.74079 2.08481 3.08481C1.74079 3.42883 1.46792 3.83726 1.28179 4.28676C1.09565 4.73626 0.999899 5.21803 1 5.70455V15.2296C1 15.716 1.09583 16.1977 1.28201 16.6471C1.46819 17.0965 1.74108 17.5049 2.08508 17.8488C2.42909 18.1927 2.83749 18.4655 3.28694 18.6516C3.73639 18.8377 4.2181 18.9334 4.70455 18.9333H14.2296C15.2119 18.9333 16.1539 18.5431 16.8485 17.8485C17.5431 17.1539 17.9333 16.2119 17.9333 15.2296V5.70455C17.9334 5.2181 17.8377 4.73639 17.6516 4.28694C17.4655 3.83749 17.1927 3.42909 16.8488 3.08508C16.5049 2.74108 16.0965 2.46819 15.6471 2.28201C15.1977 2.09583 14.716 2 14.2296 2ZM16.8758 15.2296C16.8759 15.5771 16.8075 15.9212 16.6745 16.2423C16.5416 16.5634 16.3467 16.8552 16.1009 17.1009C15.8552 17.3467 15.5634 17.5416 15.2423 17.6745C14.9212 17.8075 14.5771 17.8759 14.2296 17.8758H4.70455C4.35702 17.8759 4.01287 17.8075 3.69177 17.6745C3.37067 17.5416 3.07891 17.3467 2.83317 17.1009C2.58742 16.8552 2.39251 16.5634 2.25956 16.2423C2.12661 15.9212 2.05823 15.5771 2.05833 15.2296V5.70455C2.05823 5.35702 2.12661 5.01287 2.25956 4.69177C2.39251 4.37067 2.58742 4.07891 2.83317 3.83317C3.07891 3.58742 3.37067 3.39251 3.69177 3.25956C4.01287 3.12661 4.35702 3.05823 4.70455 3.05833H14.2296C14.5771 3.05823 14.9212 3.12661 15.2423 3.25956C15.5634 3.39251 15.8552 3.58742 16.1009 3.83317C16.3467 4.07891 16.5416 4.37067 16.6745 4.69177C16.8075 5.01287 16.8759 5.35702 16.8758 5.70455V15.2296Z" fill="#ACACAE" stroke="#ACACAE" stroke-width="0.4"/>
<path d="M14.1484 9.14435C14.0813 8.93784 13.9028 8.78733 13.6879 8.75614L11.2891 8.40754L10.2164 6.23393C10.1203 6.03921 9.92195 5.91595 9.70483 5.91595C9.48772 5.91595 9.2894 6.03921 9.19332 6.23393L8.12056 8.40754L5.7218 8.75614C5.50692 8.78735 5.32841 8.93786 5.26133 9.14435C5.19424 9.35084 5.25019 9.57751 5.40569 9.72907L7.14143 11.4211L6.73168 13.8101C6.695 14.0241 6.78297 14.2404 6.9586 14.368C7.13426 14.4957 7.36714 14.5125 7.55935 14.4114L9.70485 13.2835L11.8503 14.4114C11.9338 14.4553 12.0249 14.477 12.1157 14.477C12.234 14.477 12.3517 14.4402 12.4511 14.368C12.6267 14.2404 12.7147 14.0241 12.678 13.8101L12.2683 11.4211L14.004 9.7291C14.1595 9.57755 14.2155 9.35085 14.1484 9.14435ZM11.2572 10.8134C11.1227 10.9445 11.0614 11.1333 11.0931 11.3183L11.3582 12.8638L9.9703 12.1341C9.80414 12.0468 9.60566 12.0468 9.4394 12.1341L8.05151 12.8638L8.31656 11.3183C8.3483 11.1333 8.28696 10.9445 8.15251 10.8134L7.02966 9.71887L8.5814 9.49339C8.7672 9.46638 8.92781 9.34969 9.01088 9.18135L9.70486 7.77523L10.3988 9.18135C10.482 9.34971 10.6426 9.46641 10.8283 9.49339L12.3801 9.71887L11.2572 10.8134Z" fill="#ACACAE" stroke="#ACACAE" stroke-width="0.2"/>
</svg>
