<svg width="20" height="20" viewBox="0 0 20 20" fill="none" xmlns="http://www.w3.org/2000/svg">
<path d="M14.3337 1H4.73372C4.24337 0.999898 3.75781 1.0964 3.30477 1.28401C2.85173 1.47161 2.44008 1.74663 2.09335 2.09335C1.74663 2.44008 1.47161 2.85173 1.28401 3.30477C1.0964 3.75781 0.999898 4.24337 1 4.73372V14.3337C1 14.824 1.09658 15.3095 1.28423 15.7624C1.47187 16.2154 1.74691 16.6269 2.09363 16.9736C2.44035 17.3202 2.85196 17.5952 3.30495 17.7827C3.75794 17.9703 4.24344 18.0668 4.73372 18.0667H14.3337C15.3238 18.0667 16.2732 17.6734 16.9733 16.9733C17.6734 16.2732 18.0667 15.3238 18.0667 14.3337V4.73372C18.0668 4.24344 17.9703 3.75794 17.7827 3.30495C17.5952 2.85196 17.3202 2.44035 16.9736 2.09363C16.6269 1.74691 16.2154 1.47187 15.7624 1.28423C15.3095 1.09658 14.824 1 14.3337 1ZM17.0008 14.3337C17.0009 14.684 16.932 15.0309 16.798 15.3545C16.664 15.6781 16.4675 15.9722 16.2198 16.2198C15.9722 16.4675 15.6781 16.664 15.3545 16.798C15.0309 16.932 14.684 17.0009 14.3337 17.0008H4.73372C4.38345 17.0009 4.03659 16.932 3.71296 16.798C3.38933 16.664 3.09528 16.4675 2.8476 16.2198C2.59992 15.9722 2.40347 15.6781 2.26948 15.3545C2.13548 15.0309 2.06656 14.684 2.06667 14.3337V4.73372C2.06656 4.38345 2.13548 4.03659 2.26948 3.71296C2.40347 3.38933 2.59992 3.09528 2.8476 2.8476C3.09528 2.59992 3.38933 2.40347 3.71296 2.26948C4.03659 2.13548 4.38345 2.06656 4.73372 2.06667H14.3337C14.684 2.06656 15.0309 2.13548 15.3545 2.26948C15.6781 2.40347 15.9722 2.59992 16.2198 2.8476C16.4675 3.09528 16.664 3.38933 16.798 3.71296C16.932 4.03659 17.0009 4.38345 17.0008 4.73372V14.3337Z" fill="#ACACAE" stroke="#ACACAE" stroke-width="0.4"/>
<path d="M8.89852 7.84047H14.8667V6.87077H8.90367C8.71757 6.48954 8.40691 6.19224 8.02909 6.03381C7.65127 5.87538 7.23184 5.86653 6.84831 6.0089C6.64093 6.07254 6.44894 6.18242 6.28534 6.33112C6.12174 6.47982 5.99035 6.66386 5.90008 6.87077H4.20003V7.84047H5.89567C6.08178 8.22187 6.39257 8.5193 6.77055 8.67774C7.14853 8.83618 7.56814 8.84492 7.95176 8.70233C8.15887 8.63851 8.35057 8.52853 8.51391 8.37984C8.67724 8.23115 8.8084 8.04722 8.89852 7.84047Z" fill="#ACACAE"/>
<path d="M12.9541 12.1955H14.8667V11.2258H12.9541C12.7681 10.8457 12.4581 10.5491 12.0813 10.3907C11.7045 10.2324 11.2861 10.2229 10.9031 10.364C10.6957 10.4276 10.5037 10.5375 10.3401 10.6862C10.1765 10.8349 10.0452 11.0189 9.95488 11.2258H4.20003V12.1955H9.949C10.1351 12.5766 10.4456 12.8738 10.8233 13.0322C11.2009 13.1906 11.6202 13.1996 12.0036 13.0574C12.2114 12.9941 12.4038 12.8843 12.5678 12.7356C12.7318 12.5869 12.8635 12.4027 12.9541 12.1955Z" fill="#ACACAE"/>
</svg>
