<svg width="16" height="16" viewBox="0 0 16 16" fill="none" xmlns="http://www.w3.org/2000/svg">
<path d="M14.0772 8.79973C14.112 8.53458 14.1256 8.26707 14.1177 7.99976C14.1177 7.71976 14.0772 7.47977 14.0772 7.19978L15.7954 5.87982C15.8354 5.85149 15.8694 5.81542 15.8953 5.77374C15.9212 5.73206 15.9385 5.68562 15.9462 5.63715C15.9538 5.58869 15.9517 5.53918 15.9399 5.49155C15.9281 5.44392 15.9069 5.39914 15.8775 5.35984L14.2431 2.59939C14.1935 2.51871 14.1169 2.45831 14.0269 2.42899C13.9368 2.39967 13.8393 2.40336 13.7518 2.43939L11.706 3.23937C11.2805 2.91119 10.8125 2.64209 10.3148 2.43939L10.0262 0.319989C10.001 0.230027 9.94776 0.150465 9.87416 0.0929028C9.80057 0.0353411 9.7105 0.002791 9.6171 0H6.34339C6.24999 0.002791 6.15992 0.0353411 6.08632 0.0929028C6.01272 0.150465 5.95944 0.230027 5.93424 0.319989L5.60725 2.43993C5.11409 2.65182 4.64722 2.92028 4.21604 3.2399L2.16978 2.43993C2.08267 2.4006 1.98401 2.3952 1.89314 2.4248C1.80226 2.45439 1.72571 2.51685 1.67848 2.59992L0.0418933 5.35984C0.00383445 5.44517 -0.00866196 5.53971 0.00591826 5.632C0.0204985 5.72428 0.0615295 5.81037 0.124042 5.87982L1.88439 7.19978C1.88439 7.47977 1.84385 7.71976 1.84385 7.99976C1.84385 8.27975 1.88439 8.51974 1.88439 8.79973L0.166185 10.1197C0.126118 10.148 0.0921316 10.1841 0.0662328 10.2258C0.040334 10.2675 0.0230475 10.3139 0.0153907 10.3624C0.00773399 10.4108 0.0098624 10.4603 0.0216521 10.508C0.0334418 10.5556 0.0546545 10.6004 0.0840361 10.6397L1.72062 13.3996C1.77015 13.4803 1.84679 13.5407 1.93682 13.57C2.02684 13.5993 2.12437 13.5956 2.21192 13.5596L4.25818 12.7596C4.68369 13.0878 5.15168 13.3569 5.64939 13.5596L5.97479 15.6795C5.99313 15.7731 6.04458 15.857 6.11972 15.9157C6.19486 15.9745 6.28865 16.0042 6.38393 15.9995H9.6555C9.74891 15.9967 9.83897 15.9642 9.91257 15.9066C9.98617 15.849 10.0395 15.7695 10.0646 15.6795L10.3922 13.5596C10.8854 13.3477 11.3522 13.0793 11.7834 12.7596L13.8297 13.5596C13.9168 13.5989 14.0154 13.6043 14.1063 13.5747C14.1972 13.5451 14.2737 13.4827 14.3209 13.3996L15.9575 10.6397C15.996 10.5544 16.0087 10.4598 15.9941 10.3674C15.9795 10.275 15.9383 10.1889 15.8754 10.1197L14.0772 8.79973ZM7.97998 10.7997C7.42883 10.7872 6.89362 10.6124 6.4414 10.2971C5.98918 9.98189 5.64006 9.54025 5.43777 9.02754C5.23548 8.51482 5.18901 7.95382 5.3042 7.41482C5.41939 6.87582 5.6911 6.38278 6.0853 5.99748C6.4795 5.61217 6.97866 5.35173 7.52025 5.24878C8.06183 5.14583 8.62177 5.20495 9.1299 5.41872C9.63803 5.6325 10.0718 5.99144 10.3768 6.45056C10.6818 6.90969 10.8445 7.44859 10.8445 7.99976C10.8425 8.37227 10.7666 8.74068 10.6212 9.08364C10.4757 9.42659 10.2636 9.73727 9.99713 9.99766C9.73067 10.2581 9.41517 10.463 9.06891 10.6006C8.72265 10.7381 8.35252 10.8056 7.97998 10.7991V10.7997Z" fill="#39414E"/>
</svg>
