<svg width="18" height="18" viewBox="0 0 18 18" fill="none" xmlns="http://www.w3.org/2000/svg">
<path d="M13.5004 1H4.50036C4.04066 0.999905 3.58545 1.09038 3.16072 1.26625C2.73599 1.44213 2.35008 1.69996 2.02502 2.02502C1.69996 2.35008 1.44213 2.73599 1.26625 3.16072C1.09038 3.58545 0.999905 4.04066 1 4.50036V13.5004C1 13.96 1.09054 14.4151 1.26646 14.8398C1.44238 15.2644 1.70023 15.6503 2.02528 15.9752C2.35033 16.3002 2.73621 16.558 3.16089 16.7338C3.58557 16.9096 4.04072 17.0001 4.50036 17H13.5004C14.4285 17 15.3187 16.6313 15.975 15.975C16.6313 15.3187 17 14.4285 17 13.5004V4.50036C17.0001 4.04072 16.9096 3.58557 16.7338 3.16089C16.558 2.73621 16.3002 2.35033 15.9752 2.02528C15.6503 1.70023 15.2644 1.44238 14.8398 1.26646C14.4151 1.09054 13.96 1 13.5004 1ZM16.0007 13.5004C16.0008 13.8287 15.9362 14.1539 15.8106 14.4573C15.685 14.7607 15.5008 15.0364 15.2686 15.2686C15.0364 15.5008 14.7607 15.685 14.4573 15.8106C14.1539 15.9362 13.8287 16.0008 13.5004 16.0007H4.50036C4.17198 16.0008 3.8468 15.9362 3.5434 15.8106C3.24 15.685 2.96433 15.5008 2.73213 15.2686C2.49993 15.0364 2.31576 14.7607 2.19013 14.4573C2.06451 14.1539 1.9999 13.8287 2 13.5004V4.50036C1.9999 4.17198 2.06451 3.8468 2.19013 3.5434C2.31576 3.24 2.49993 2.96433 2.73213 2.73213C2.96433 2.49993 3.24 2.31576 3.5434 2.19013C3.8468 2.06451 4.17198 1.9999 4.50036 2H13.5004C13.8287 1.9999 14.1539 2.06451 14.4573 2.19013C14.7607 2.31576 15.0364 2.49993 15.2686 2.73213C15.5008 2.96433 15.685 3.24 15.8106 3.5434C15.9362 3.8468 16.0008 4.17198 16.0007 4.50036V13.5004Z" fill="#566477" stroke="#566477" stroke-width="0.4"/>
<line x1="6" y1="7" x2="12" y2="7" stroke="#566477" stroke-width="2" stroke-linecap="round"/>
<line x1="6" y1="11" x2="12" y2="11" stroke="#566477" stroke-width="2" stroke-linecap="round"/>
</svg>
