<svg width="40" height="40" viewBox="0 0 40 40" fill="none" xmlns="http://www.w3.org/2000/svg">
<path d="M20 1.74846e-06C31.0277 7.84384e-07 40 8.97231 40 20C40 31.0277 31.0277 40 20 40C8.97232 40 1.06597e-05 31.0277 9.69564e-06 20C8.73156e-06 8.97231 8.97231 2.71253e-06 20 1.74846e-06ZM20 36.9231C29.3292 36.9231 36.9231 29.3292 36.9231 20C36.9231 10.6708 29.3292 3.07692 20 3.07693C10.6708 3.07693 3.07693 10.6708 3.07693 20C3.07693 29.3292 10.6708 36.9231 20 36.9231Z" fill="#566477"/>
<path d="M20.0005 9.23074C20.3944 9.23074 20.7882 9.38151 21.0897 9.67997L30.3205 18.9107C30.9205 19.5107 30.9205 20.4861 30.3205 21.0861C29.7205 21.6861 28.7451 21.6861 28.1451 21.0861L20.0036 12.9446L11.862 21.0861C11.262 21.6861 10.2867 21.6861 9.68667 21.0861C9.08667 20.4861 9.08667 19.5107 9.68667 18.9107L18.9174 9.67997C19.2128 9.38151 19.6067 9.23074 20.0005 9.23074Z" fill="#566477"/>
<path d="M20.0006 9.99933C20.8498 9.99933 21.5391 10.6886 21.5391 11.5378L21.5391 29.2301C21.5391 30.0793 20.8498 30.7686 20.0006 30.7686C19.1514 30.7686 18.4621 30.0793 18.4621 29.2301L18.4621 11.5378C18.4621 10.6886 19.1514 9.99933 20.0006 9.99933Z" fill="#566477"/>
</svg>
