<svg width="22" height="22" viewBox="0 0 22 22" fill="none" xmlns="http://www.w3.org/2000/svg">
<g clip-path="url(#clip0_830:10866)">
<path d="M4.87566 13.2941L4.10988 16.1529L1.31093 16.2121C0.474461 14.6606 0 12.8856 0 10.9992C0 9.17516 0.443609 7.45504 1.22994 5.94043H1.23054L3.72238 6.39727L4.81396 8.87416C4.5855 9.54022 4.46097 10.2552 4.46097 10.9992C4.46106 11.8067 4.60732 12.5803 4.87566 13.2941Z" fill="#FBBB00"/>
<path d="M21.8082 8.94482C21.9345 9.61024 22.0004 10.2974 22.0004 10.9998C22.0004 11.7873 21.9176 12.5555 21.7598 13.2965C21.2243 15.818 19.8252 18.0198 17.8869 19.578L17.8863 19.5774L14.7477 19.4172L14.3035 16.6442C15.5896 15.8899 16.5947 14.7096 17.1242 13.2965H11.2422V8.94482H17.21H21.8082Z" fill="#518EF8"/>
<path d="M17.8855 19.5771L17.8861 19.5777C16.001 21.0929 13.6064 21.9995 10.9996 21.9995C6.81055 21.9995 3.16847 19.6581 1.31055 16.2124L4.87528 13.2944C5.80422 15.7736 8.19582 17.5385 10.9996 17.5385C12.2048 17.5385 13.3338 17.2127 14.3026 16.644L17.8855 19.5771Z" fill="#28B446"/>
<path d="M18.0208 2.53241L14.4573 5.44981C13.4546 4.82307 12.2694 4.46102 10.9996 4.46102C8.13229 4.46102 5.69596 6.30682 4.81356 8.87494L1.23009 5.9412H1.22949C3.06022 2.41154 6.74823 0 10.9996 0C13.6686 0 16.1158 0.950727 18.0208 2.53241Z" fill="#F14336"/>
</g>
<defs>
<clipPath id="clip0_830:10866">
<rect width="22" height="22" fill="white"/>
</clipPath>
</defs>
</svg>