<svg width="24" height="24" viewBox="0 0 24 24" fill="none" xmlns="http://www.w3.org/2000/svg">
<path d="M6.53346 12.533H17.4668V14.5863H18.5335V11.4663H12.5335V9.33301H11.4668V11.4663H5.4668V14.5863H6.53346V12.533Z" fill="white"/>
<path d="M9.33398 15.333H2.66732C1.93094 15.333 1.33398 15.93 1.33398 16.6663V20.6663C1.33398 21.4027 1.93094 21.9997 2.66732 21.9997H9.33398C10.0704 21.9997 10.6673 21.4027 10.6673 20.6663V16.6663C10.6673 15.93 10.0704 15.333 9.33398 15.333Z" fill="white"/>
<path d="M21.334 15.333H14.6673C13.9309 15.333 13.334 15.93 13.334 16.6663V20.6663C13.334 21.4027 13.9309 21.9997 14.6673 21.9997H21.334C22.0704 21.9997 22.6673 21.4027 22.6673 20.6663V16.6663C22.6673 15.93 22.0704 15.333 21.334 15.333Z" fill="white"/>
<path d="M15.334 2H8.66732C7.93094 2 7.33398 2.59695 7.33398 3.33333V7.33333C7.33398 8.06971 7.93094 8.66667 8.66732 8.66667H15.334C16.0704 8.66667 16.6673 8.06971 16.6673 7.33333V3.33333C16.6673 2.59695 16.0704 2 15.334 2Z" fill="white"/>
</svg>
