<svg width="20" height="20" viewBox="0 0 20 20" fill="none" xmlns="http://www.w3.org/2000/svg">
<path d="M13.3327 13.333H14.9993C15.4577 13.333 15.8327 13.708 15.8327 14.1663C15.8327 14.6247 15.4577 14.9997 14.9993 14.9997H13.3327C12.8743 14.9997 12.4993 14.6247 12.4993 14.1663C12.4993 13.708 12.8743 13.333 13.3327 13.333ZM13.3327 6.66634H17.4993C17.9577 6.66634 18.3327 7.04134 18.3327 7.49967C18.3327 7.95801 17.9577 8.33301 17.4993 8.33301H13.3327C12.8743 8.33301 12.4993 7.95801 12.4993 7.49967C12.4993 7.04134 12.8743 6.66634 13.3327 6.66634ZM13.3327 9.99967H16.666C17.1243 9.99967 17.4993 10.3747 17.4993 10.833C17.4993 11.2913 17.1243 11.6663 16.666 11.6663H13.3327C12.8743 11.6663 12.4993 11.2913 12.4993 10.833C12.4993 10.3747 12.8743 9.99967 13.3327 9.99967ZM2.49935 14.9997C2.49935 15.9163 3.24935 16.6663 4.16602 16.6663H9.16602C10.0827 16.6663 10.8327 15.9163 10.8327 14.9997V6.66634H2.49935V14.9997ZM10.8327 4.16634H9.16602L8.57435 3.57467C8.42435 3.42467 8.20768 3.33301 7.99102 3.33301H5.34102C5.12435 3.33301 4.90768 3.42467 4.75768 3.57467L4.16602 4.16634H2.49935C2.04102 4.16634 1.66602 4.54134 1.66602 4.99967C1.66602 5.45801 2.04102 5.83301 2.49935 5.83301H10.8327C11.291 5.83301 11.666 5.45801 11.666 4.99967C11.666 4.54134 11.291 4.16634 10.8327 4.16634Z" fill="#F57576"/>
</svg>
