<svg width="20" height="20" viewBox="0 0 20 20" fill="none" xmlns="http://www.w3.org/2000/svg">
<path d="M15.81 10.548L10.98 15.378C10.6985 15.6594 10.4987 16.0119 10.402 16.398L10.027 17.896C9.99002 18.045 9.9922 18.201 10.0333 18.3489C10.0745 18.4968 10.1532 18.6315 10.2618 18.74C10.3703 18.8485 10.5052 18.9271 10.6531 18.9681C10.801 19.0091 10.957 19.0111 11.106 18.974L12.604 18.6C12.99 18.503 13.343 18.304 13.624 18.022L18.454 13.192C18.8001 12.8403 18.9932 12.3661 18.9912 11.8726C18.9892 11.3792 18.7923 10.9066 18.4433 10.5577C18.0943 10.2088 17.6216 10.0121 17.1281 10.0103C16.6347 10.0084 16.1605 10.2017 15.809 10.548H15.81ZM7 2.5C7 2.36739 6.94732 2.24021 6.85355 2.14645C6.75979 2.05268 6.63261 2 6.5 2C6.36739 2 6.24021 2.05268 6.14645 2.14645C6.05268 2.24021 6 2.36739 6 2.5V3H5.5C5.10218 3 4.72064 3.15804 4.43934 3.43934C4.15804 3.72064 4 4.10218 4 4.5V16.5C4 16.8978 4.15804 17.2794 4.43934 17.5607C4.72064 17.842 5.10218 18 5.5 18H9.003C9.01 17.886 9.028 17.77 9.057 17.653L9.432 16.155C9.572 15.593 9.862 15.08 10.272 14.67L15.102 9.84C15.368 9.574 15.674 9.371 16 9.232V4.5C16 4.10218 15.842 3.72064 15.5607 3.43934C15.2794 3.15804 14.8978 3 14.5 3H14V2.5C14 2.36739 13.9473 2.24021 13.8536 2.14645C13.7598 2.05268 13.6326 2 13.5 2C13.3674 2 13.2402 2.05268 13.1464 2.14645C13.0527 2.24021 13 2.36739 13 2.5V3H10.5V2.5C10.5 2.36739 10.4473 2.24021 10.3536 2.14645C10.2598 2.05268 10.1326 2 10 2C9.86739 2 9.74021 2.05268 9.64645 2.14645C9.55268 2.24021 9.5 2.36739 9.5 2.5V3H7V2.5ZM7.5 7H12.5C12.6326 7 12.7598 7.05268 12.8536 7.14645C12.9473 7.24021 13 7.36739 13 7.5C13 7.63261 12.9473 7.75979 12.8536 7.85355C12.7598 7.94732 12.6326 8 12.5 8H7.5C7.36739 8 7.24021 7.94732 7.14645 7.85355C7.05268 7.75979 7 7.63261 7 7.5C7 7.36739 7.05268 7.24021 7.14645 7.14645C7.24021 7.05268 7.36739 7 7.5 7ZM13 10.5C13 10.6326 12.9473 10.7598 12.8536 10.8536C12.7598 10.9473 12.6326 11 12.5 11H7.5C7.36739 11 7.24021 10.9473 7.14645 10.8536C7.05268 10.7598 7 10.6326 7 10.5C7 10.3674 7.05268 10.2402 7.14645 10.1464C7.24021 10.0527 7.36739 10 7.5 10H12.5C12.6326 10 12.7598 10.0527 12.8536 10.1464C12.9473 10.2402 13 10.3674 13 10.5ZM7.5 13H9.5C9.63261 13 9.75979 13.0527 9.85355 13.1464C9.94732 13.2402 10 13.3674 10 13.5C10 13.6326 9.94732 13.7598 9.85355 13.8536C9.75979 13.9473 9.63261 14 9.5 14H7.5C7.36739 14 7.24021 13.9473 7.14645 13.8536C7.05268 13.7598 7 13.6326 7 13.5C7 13.3674 7.05268 13.2402 7.14645 13.1464C7.24021 13.0527 7.36739 13 7.5 13Z" fill="#25A156"/>
</svg>
