<svg width="24" height="24" viewBox="0 0 24 24" fill="none" xmlns="http://www.w3.org/2000/svg">
<path d="M5.40039 2.40039C4.60474 2.40039 3.84168 2.71646 3.27907 3.27907C2.71646 3.84168 2.40039 4.60474 2.40039 5.40039V16.2004C2.40039 16.996 2.71646 17.7591 3.27907 18.3217C3.84168 18.8843 4.60474 19.2004 5.40039 19.2004H7.24239C7.21419 19.0016 7.20016 18.8011 7.20039 18.6004V13.8004C7.20039 12.6865 7.64289 11.6182 8.43054 10.8305C9.21819 10.0429 10.2865 9.60039 11.4004 9.60039H18.6004C18.8044 9.60039 19.0048 9.61479 19.2004 9.64239V5.40039C19.2004 4.60474 18.8843 3.84168 18.3217 3.27907C17.7591 2.71646 16.996 2.40039 16.2004 2.40039H5.40039ZM6.00039 5.40039C6.00039 5.24126 6.0636 5.08865 6.17613 4.97613C6.28865 4.8636 6.44126 4.80039 6.60039 4.80039H15.0004C15.1595 4.80039 15.3121 4.8636 15.4247 4.97613C15.5372 5.08865 15.6004 5.24126 15.6004 5.40039C15.6004 5.55952 15.5372 5.71213 15.4247 5.82465C15.3121 5.93718 15.1595 6.00039 15.0004 6.00039H6.60039C6.44126 6.00039 6.28865 5.93718 6.17613 5.82465C6.0636 5.71213 6.00039 5.55952 6.00039 5.40039ZM8.40039 7.80039C8.40039 7.64126 8.4636 7.48865 8.57613 7.37613C8.68865 7.2636 8.84126 7.20039 9.00039 7.20039H15.0004C15.1595 7.20039 15.3121 7.2636 15.4247 7.37613C15.5372 7.48865 15.6004 7.64126 15.6004 7.80039C15.6004 7.95952 15.5372 8.11213 15.4247 8.22465C15.3121 8.33718 15.1595 8.40039 15.0004 8.40039H9.00039C8.84126 8.40039 8.68865 8.33718 8.57613 8.22465C8.4636 8.11213 8.40039 7.95952 8.40039 7.80039ZM15.0004 16.438L8.63319 12.64C8.86186 12.0948 9.24651 11.6294 9.73883 11.3021C10.2312 10.9748 10.8092 10.8003 11.4004 10.8004H18.6004C19.1916 10.8003 19.7696 10.9748 20.2619 11.3021C20.7543 11.6294 21.1389 12.0948 21.3676 12.64L15.0004 16.438ZM15.3076 17.6512L21.6004 13.8988V18.6004C21.6004 19.396 21.2843 20.1591 20.7217 20.7217C20.1591 21.2843 19.396 21.6004 18.6004 21.6004H11.4004C10.6047 21.6004 9.84168 21.2843 9.27907 20.7217C8.71646 20.1591 8.40039 19.396 8.40039 18.6004V13.8988L14.6932 17.6512C14.7861 17.7066 14.8922 17.7358 15.0004 17.7358C15.1085 17.7358 15.2147 17.7066 15.3076 17.6512Z" fill="white"/>
</svg>
