<svg width="17" height="17" viewBox="0 0 17 17" fill="none" xmlns="http://www.w3.org/2000/svg">
<path d="M4.71897 8.49686C4.71897 7.7041 4.93739 6.96146 5.31685 6.32558V3.6283H2.61957C1.54903 5.01863 0.96875 6.71307 0.96875 8.49686C0.96875 10.2807 1.54903 11.9751 2.61957 13.3654H5.31685V10.6681C4.93739 10.0323 4.71897 9.28963 4.71897 8.49686Z" fill="#FBBD00"/>
<path d="M8.96935 12.7466L7.09424 14.6217L8.96935 16.4968C10.7532 16.4968 12.4476 15.9165 13.8379 14.846V12.1516H11.1435C10.5021 12.5324 9.7563 12.7466 8.96935 12.7466Z" fill="#0F9D58"/>
<path d="M5.31545 10.6671L2.61816 13.3644C2.83011 13.6396 3.06091 13.9032 3.31064 14.153C4.82173 15.664 6.83082 16.4963 8.96782 16.4963V12.746C7.41698 12.746 6.05774 11.911 5.31545 10.6671Z" fill="#31AA52"/>
<path d="M16.9699 8.497C16.9699 8.01025 16.9258 7.5226 16.8389 7.04764L16.7685 6.66327H8.96942V10.4135H12.765C12.3964 11.1467 11.8297 11.7449 11.1435 12.1523L13.838 14.8467C14.1132 14.6347 14.3768 14.4039 14.6266 14.1542C16.1377 12.6431 16.9699 10.634 16.9699 8.497Z" fill="#3C79E6"/>
<path d="M11.9747 5.49117L12.3062 5.82262L14.958 3.17084L14.6266 2.83939C13.1155 1.3283 11.1064 0.496094 8.96935 0.496094L7.09424 2.3712L8.96935 4.24631C10.1046 4.24631 11.1719 4.6884 11.9747 5.49117Z" fill="#CF2D48"/>
<path d="M8.96785 4.24631V0.496094C6.83085 0.496094 4.82176 1.3283 3.31064 2.83936C3.06091 3.08909 2.83011 3.3527 2.61816 3.628L5.31545 6.32528C6.05777 5.08136 7.41701 4.24631 8.96785 4.24631Z" fill="#EB4132"/>
</svg>
