<svg width="45" height="44" viewBox="0 0 45 44" fill="none" xmlns="http://www.w3.org/2000/svg">
<path opacity="0.03" d="M22.2316 43.9241C34.3609 43.9241 44.1936 34.0913 44.1936 21.962C44.1936 9.83274 34.3609 0 22.2316 0C10.1023 0 0.269531 9.83274 0.269531 21.962C0.269531 34.0913 10.1023 43.9241 22.2316 43.9241Z" fill="#21497D"/>
<path d="M22.6624 32.4585C23.2184 32.4569 23.7512 32.2354 24.1443 31.8422C24.5375 31.4491 24.7591 30.9163 24.7606 30.3603H20.5642C20.5641 30.6358 20.6183 30.9087 20.7237 31.1633C20.8291 31.418 20.9836 31.6493 21.1785 31.8442C21.3734 32.039 21.6047 32.1936 21.8593 32.299C22.1139 32.4044 22.3868 32.4586 22.6624 32.4585ZM28.9571 26.1638V20.9183C28.9571 17.6975 27.2364 15.0012 24.2361 14.2874V13.5737C24.2361 13.1563 24.0703 12.756 23.7752 12.4609C23.48 12.1658 23.0798 12 22.6624 12C22.245 12 21.8448 12.1658 21.5497 12.4609C21.2545 12.756 21.0887 13.1563 21.0887 13.5737V14.2874C18.0774 15.0012 16.3678 17.6865 16.3678 20.9183V26.1638L14.2695 28.2604V29.3095H31.0561V28.2604L28.9571 26.1638Z" fill="#0E5499"/>
</svg>
