<svg width="46" height="46" viewBox="0 0 46 46" fill="none" xmlns="http://www.w3.org/2000/svg">
<circle cx="23.0327" cy="23.0342" r="22.3608" fill="#FFA155" fill-opacity="0.1"/>
<g clip-path="url(#clip0_1_191)">
<g clip-path="url(#clip1_1_191)">
<path d="M14.013 12.1343H32.0511C33.1117 12.1343 33.9746 12.9972 33.9746 14.0578V32.0104C33.9746 33.071 33.1117 33.9339 32.0511 33.9339H14.013C12.9524 33.9339 12.0895 33.071 12.0895 32.0104V14.0578C12.0895 12.9972 12.9524 12.1343 14.013 12.1343ZM32.0511 13.4166H14.013C13.6595 13.4166 13.3719 13.7042 13.3719 14.0578V17.2636H32.6923V14.0578C32.6923 13.7042 32.4047 13.4166 32.0511 13.4166ZM14.013 32.6515H32.0511C32.4047 32.6515 32.6923 32.3639 32.6923 32.0104V18.5459H13.3719V32.0104C13.3719 32.3639 13.6595 32.6515 14.013 32.6515Z" fill="#0E5499"/>
<path d="M20.8548 20.5212C21.1803 20.3818 21.5572 20.5325 21.6967 20.858L25.5437 29.8343C25.6832 30.1597 25.5324 30.5367 25.2069 30.6762C24.8814 30.8157 24.5045 30.6648 24.3651 30.3394L20.5181 21.3631C20.3786 21.0376 20.5294 20.6607 20.8548 20.5212Z" fill="#52B856"/>
<path d="M26.3791 22.6335C26.6003 22.3569 27.0039 22.3122 27.2803 22.5334L30.4861 25.098C30.8066 25.3543 30.8068 25.8428 30.4861 26.0993L27.2803 28.664C27.0037 28.8852 26.6002 28.8404 26.3791 28.5639C26.1579 28.2874 26.2027 27.8839 26.4792 27.6627L29.0592 25.5987L26.4792 23.5347C26.2027 23.3135 26.1579 22.91 26.3791 22.6335Z" fill="#52B856"/>
<path d="M15.5786 25.098L18.7845 22.5334C19.061 22.3121 19.4645 22.357 19.6856 22.6335C19.9068 22.91 19.862 23.3135 19.5855 23.5347L17.0055 25.5987L19.5855 27.6627C19.862 27.8839 19.9068 28.2873 19.6856 28.5639C19.4641 28.8407 19.0606 28.885 18.7845 28.664L15.5786 26.0993C15.2581 25.843 15.2579 25.3546 15.5786 25.098Z" fill="#52B856"/>
<path d="M30.726 15.9813C30.3719 15.9813 30.0849 15.6942 30.0849 15.3401C30.0849 14.986 30.3719 14.699 30.726 14.699C31.0801 14.699 31.3672 14.986 31.3672 15.3401C31.3672 15.6942 31.0801 15.9813 30.726 15.9813Z" fill="#0E5499"/>
<path d="M28.1616 15.9813C27.8075 15.9813 27.5204 15.6942 27.5204 15.3401C27.5204 14.986 27.8075 14.699 28.1616 14.699C28.5157 14.699 28.8027 14.986 28.8027 15.3401C28.8027 15.6942 28.5157 15.9813 28.1616 15.9813Z" fill="#0E5499"/>
<path d="M25.5971 15.9813C25.243 15.9813 24.956 15.6942 24.956 15.3401C24.956 14.986 25.243 14.699 25.5971 14.699C25.9512 14.699 26.2383 14.986 26.2383 15.3401C26.2383 15.6942 25.9512 15.9813 25.5971 15.9813Z" fill="#0E5499"/>
<path d="M19.185 15.9813H15.338C14.9839 15.9813 14.6969 15.6942 14.6969 15.3401C14.6969 14.986 14.9839 14.699 15.338 14.699H19.185C19.5391 14.699 19.8262 14.986 19.8262 15.3401C19.8262 15.6942 19.5391 15.9813 19.185 15.9813Z" fill="#0E5499"/>
</g>
</g>
<defs>
<clipPath id="clip0_1_191">
<rect width="22.8366" height="22.8366" fill="white" transform="translate(11.1387 12.0916)"/>
</clipPath>
<clipPath id="clip1_1_191">
<rect width="21.8851" height="21.8851" fill="white" transform="matrix(-1 0 0 1 33.9746 12.0916)"/>
</clipPath>
</defs>
</svg>
