<svg width="45" height="46" viewBox="0 0 45 46" fill="none" xmlns="http://www.w3.org/2000/svg">
<circle cx="22.3999" cy="23.0342" r="22.3608" fill="#FFA155" fill-opacity="0.1"/>
<g clip-path="url(#clip0_1_224)">
<path d="M22.8735 12.0913C17.3399 12.0913 12.8379 16.5933 12.8379 22.1269C12.8379 22.7402 12.8379 27.4841 12.8379 27.5685C12.8379 28.6752 13.7383 29.5756 14.845 29.5756H15.6291C15.9053 30.3542 16.649 30.9137 17.5212 30.9137C18.6279 30.9137 19.5283 30.0133 19.5283 28.9065V23.465C19.5283 22.3583 18.6279 21.4579 17.5212 21.4579C16.649 21.4579 15.9053 22.0173 15.6291 22.796H14.845C14.6104 22.796 14.3854 22.8368 14.176 22.911V22.1269C14.176 17.3311 18.0777 13.4294 22.8735 13.4294C27.6693 13.4294 31.571 17.3311 31.571 22.1269V22.911C31.3616 22.8368 31.1366 22.796 30.902 22.796H30.1179C29.8417 22.0173 29.098 21.4579 28.2258 21.4579C27.1191 21.4579 26.2187 22.3583 26.2187 23.465V28.9065C26.2187 30.0133 27.1191 30.9137 28.2258 30.9137C28.4284 30.9137 28.6239 30.8832 28.8084 30.8272C28.5581 31.6506 27.7919 32.2517 26.8877 32.2517H24.7655C24.4894 31.4731 23.7457 30.9137 22.8735 30.9137C21.7668 30.9137 20.8664 31.8141 20.8664 32.9208C20.8664 34.0275 21.7668 34.9279 22.8735 34.9279C23.7457 34.9279 24.4894 34.3685 24.7655 33.5898H26.8877C28.7323 33.5898 30.233 32.0892 30.233 30.2446V29.5756H30.902C32.0087 29.5756 32.9091 28.6752 32.9091 27.5685C32.9091 27.4853 32.9091 22.7397 32.9091 22.1269C32.9091 16.5933 28.4071 12.0913 22.8735 12.0913ZM16.8521 23.465C16.8521 23.0961 17.1523 22.796 17.5212 22.796C17.8901 22.796 18.1902 23.0961 18.1902 23.465V28.9065C18.1902 29.2754 17.8901 29.5756 17.5212 29.5756C17.1523 29.5756 16.8521 29.2754 16.8521 28.9065V23.465ZM14.845 24.134H15.5141V28.2375H14.845C14.4761 28.2375 14.176 27.9374 14.176 27.5685V24.8031C14.176 24.4342 14.4761 24.134 14.845 24.134ZM22.8735 33.5898C22.5046 33.5898 22.2045 33.2897 22.2045 32.9208C22.2045 32.5519 22.5046 32.2517 22.8735 32.2517C23.2424 32.2517 23.5425 32.5519 23.5425 32.9208C23.5425 33.2897 23.2424 33.5898 22.8735 33.5898ZM28.8949 28.9065C28.8949 29.2754 28.5947 29.5756 28.2258 29.5756C27.8569 29.5756 27.5568 29.2754 27.5568 28.9065V23.465C27.5568 23.0961 27.8569 22.796 28.2258 22.796C28.5947 22.796 28.8949 23.0961 28.8949 23.465V28.9065ZM31.571 27.5685C31.571 27.9374 31.2709 28.2375 30.902 28.2375H30.233V24.134H30.902C31.2709 24.134 31.571 24.4342 31.571 24.8031V27.5685Z" fill="#0E5499"/>
</g>
<path d="M19.0684 17.8008C21.1178 15.558 24.0456 15.2375 26.6806 17.1599" stroke="#454DFD" stroke-width="1.42729"/>
<defs>
<clipPath id="clip0_1_224">
<rect width="22.8366" height="22.8366" fill="white" transform="translate(11.457 12.0916)"/>
</clipPath>
</defs>
</svg>
