<svg width="46" height="46" viewBox="0 0 46 46" fill="none" xmlns="http://www.w3.org/2000/svg">
<circle cx="22.8491" cy="23.0342" r="22.3608" fill="#FFA155" fill-opacity="0.1"/>
<g clip-path="url(#clip0_1_210)">
<path d="M32.5828 25.9876C32.5827 25.9876 32.5827 25.9876 32.5828 25.9876L32.0848 25.7002C30.438 24.7494 30.4338 22.2727 32.0848 21.3194L32.5828 21.032C33.2218 20.663 33.4415 19.843 33.0726 19.2042L31.452 16.3972C31.0831 15.7583 30.2632 15.5387 29.6241 15.9075L29.1284 16.1937C27.4928 17.1379 25.3325 15.9241 25.3325 14.007V13.4296C25.3325 12.6918 24.7322 12.0915 23.9944 12.0915H20.7532C20.0154 12.0915 19.4152 12.6918 19.4152 13.4296V14.0069C19.4152 15.9245 17.2544 17.1376 15.6193 16.1936L15.1234 15.9074C14.483 15.5375 13.6654 15.7566 13.2956 16.3971L11.675 19.2041C11.3061 19.843 11.5258 20.6629 12.1648 21.0319L12.6628 21.3193C14.3095 22.2701 14.3138 24.7468 12.6628 25.7001L12.1647 25.9876C11.5257 26.3565 11.3061 27.1765 11.675 27.8154L13.2955 30.6223C13.6644 31.2612 14.4844 31.4811 15.1234 31.1121L15.6192 30.8258C17.2555 29.8812 19.4151 31.0979 19.4151 33.0125V33.59C19.4151 34.3278 20.0153 34.9281 20.7532 34.9281H23.9943C24.7321 34.9281 25.3324 34.3278 25.3324 33.59V33.0127C25.3324 31.0953 27.493 29.8819 29.1283 30.8259L29.6241 31.1122C30.2631 31.4811 31.0831 31.2614 31.452 30.6224L33.0725 27.8155C33.4423 27.1751 33.2233 26.3574 32.5828 25.9876ZM30.2931 29.9534L29.7973 29.6671C27.2743 28.2104 23.9943 30.0606 23.9943 33.0127V33.59H20.7532V33.0127C20.7532 30.057 17.4699 28.2123 14.9501 29.6671L14.4543 29.9534L12.8337 27.1464L13.3317 26.859C14.5103 26.1785 15.2405 24.9016 15.2374 23.5258V23.5098V23.493C15.2405 22.118 14.5103 20.8412 13.3317 20.1607L12.8338 19.8732L14.4543 17.0663L14.9501 17.3525C17.4731 18.8092 20.7532 16.959 20.7532 14.007V13.4296H23.9943V14.0069C23.9943 16.9316 27.2507 18.8227 29.7973 17.3525L30.2931 17.0662L31.9137 19.8731L31.4157 20.1606C28.8731 21.6287 28.8767 25.393 31.4157 26.859L31.9137 27.1464L30.2931 29.9534Z" fill="#0E5499"/>
<path d="M22.3736 17.7726C19.2102 17.7726 16.6366 20.3462 16.6366 23.5096C16.6366 26.673 19.2102 29.2466 22.3736 29.2466C25.537 29.2466 28.1106 26.673 28.1106 23.5096C28.1106 20.3462 25.537 17.7726 22.3736 17.7726ZM22.3736 27.9085C19.948 27.9085 17.9747 25.9352 17.9747 23.5096C17.9747 21.084 19.948 19.1107 22.3736 19.1107C24.7992 19.1107 26.7726 21.084 26.7726 23.5096C26.7726 25.9352 24.7992 27.9085 22.3736 27.9085Z" fill="#52B856"/>
<path d="M23.9184 21.954L21.653 23.6355L20.9166 22.8508C20.6637 22.5813 20.2402 22.5678 19.9708 22.8207C19.7014 23.0736 19.688 23.497 19.9409 23.7664L21.0853 24.9858C21.3179 25.2337 21.6993 25.2675 21.9719 25.0652L24.7159 23.0285C25.0126 22.8082 25.0746 22.3892 24.8543 22.0925C24.6342 21.7959 24.2151 21.7339 23.9184 21.954Z" fill="#52B856"/>
</g>
<defs>
<clipPath id="clip0_1_210">
<rect width="22.8366" height="22.8366" fill="white" transform="translate(10.955 12.0916)"/>
</clipPath>
</defs>
</svg>
