<svg width="20" height="20" viewBox="0 0 20 20" fill="none" xmlns="http://www.w3.org/2000/svg">
<path d="M14.9994 8C15.6086 8.00002 16.2033 7.8146 16.7045 7.4684C17.2057 7.1222 17.5897 6.63162 17.8053 6.06191C18.0209 5.49219 18.058 4.87034 17.9116 4.27904C17.7652 3.68774 17.4423 3.15501 16.9858 2.7517C16.5293 2.34839 15.9608 2.09362 15.3559 2.02125C14.7511 1.94888 14.1386 2.06235 13.5998 2.34658C13.061 2.6308 12.6215 3.0723 12.3397 3.61238C12.058 4.15245 11.9473 4.7655 12.0224 5.37L7.08244 7.84C6.65867 7.43136 6.12404 7.15642 5.54513 7.04945C4.96623 6.94247 4.36865 7.00819 3.82683 7.2384C3.285 7.46862 2.82289 7.85317 2.49805 8.34414C2.17321 8.83511 2 9.4108 2 9.9995C2 10.5882 2.17321 11.1639 2.49805 11.6549C2.82289 12.1458 3.285 12.5304 3.82683 12.7606C4.36865 12.9908 4.96623 13.0565 5.54513 12.9496C6.12404 12.8426 6.65867 12.5676 7.08244 12.159L12.0224 14.629C11.9349 15.3312 12.0985 16.0418 12.4842 16.6351C12.8699 17.2284 13.453 17.6663 14.1303 17.8713C14.8076 18.0763 15.5356 18.0353 16.1856 17.7555C16.8356 17.4757 17.3658 16.9751 17.6824 16.3422C17.999 15.7093 18.0817 14.9849 17.9159 14.2969C17.75 13.6089 17.3463 13.0017 16.7761 12.5826C16.2059 12.1635 15.5059 11.9595 14.7998 12.0066C14.0937 12.0537 13.427 12.3489 12.9174 12.84L7.97744 10.37C8.00771 10.1243 8.00771 9.87574 7.97744 9.63L12.9174 7.16C13.4554 7.68 14.1894 8 14.9994 8Z" fill="#0E5499"/>
</svg>
