<svg width="24" height="24" viewBox="0 0 24 24" fill="none" xmlns="http://www.w3.org/2000/svg">
<path d="M10.8008 7.80039V2.40039H6.60078C6.12339 2.40039 5.66555 2.59003 5.32799 2.9276C4.99042 3.26516 4.80078 3.723 4.80078 4.20039V17.4004C4.80078 17.8778 4.99042 18.3356 5.32799 18.6732C5.66555 19.0107 6.12339 19.2004 6.60078 19.2004H15.6008C16.2373 19.2004 16.8478 18.9475 17.2978 18.4974C17.7479 18.0474 18.0008 17.4369 18.0008 16.8004V9.60039H12.6008C12.1234 9.60039 11.6656 9.41075 11.328 9.07318C10.9904 8.73562 10.8008 8.27778 10.8008 7.80039ZM7.20078 12.6004C7.20078 12.4413 7.264 12.2886 7.37652 12.1761C7.48904 12.0636 7.64165 12.0004 7.80078 12.0004C7.95991 12.0004 8.11252 12.0636 8.22505 12.1761C8.33757 12.2886 8.40078 12.4413 8.40078 12.6004C8.40078 12.7595 8.33757 12.9121 8.22505 13.0247C8.11252 13.1372 7.95991 13.2004 7.80078 13.2004C7.64165 13.2004 7.48904 13.1372 7.37652 13.0247C7.264 12.9121 7.20078 12.7595 7.20078 12.6004ZM7.80078 15.6004C7.64165 15.6004 7.48904 15.5372 7.37652 15.4247C7.264 15.3121 7.20078 15.1595 7.20078 15.0004C7.20078 14.8413 7.264 14.6886 7.37652 14.5761C7.48904 14.4636 7.64165 14.4004 7.80078 14.4004C7.95991 14.4004 8.11252 14.4636 8.22505 14.5761C8.33757 14.6886 8.40078 14.8413 8.40078 15.0004C8.40078 15.1595 8.33757 15.3121 8.22505 15.4247C8.11252 15.5372 7.95991 15.6004 7.80078 15.6004ZM10.2008 13.2004C10.0417 13.2004 9.88904 13.1372 9.77652 13.0247C9.664 12.9121 9.60078 12.7595 9.60078 12.6004C9.60078 12.4413 9.664 12.2886 9.77652 12.1761C9.88904 12.0636 10.0417 12.0004 10.2008 12.0004H15.0008C15.1599 12.0004 15.3125 12.0636 15.425 12.1761C15.5376 12.2886 15.6008 12.4413 15.6008 12.6004C15.6008 12.7595 15.5376 12.9121 15.425 13.0247C15.3125 13.1372 15.1599 13.2004 15.0008 13.2004H10.2008ZM9.60078 15.0004C9.60078 14.8413 9.664 14.6886 9.77652 14.5761C9.88904 14.4636 10.0417 14.4004 10.2008 14.4004H15.0008C15.1599 14.4004 15.3125 14.4636 15.425 14.5761C15.5376 14.6886 15.6008 14.8413 15.6008 15.0004C15.6008 15.1595 15.5376 15.3121 15.425 15.4247C15.3125 15.5372 15.1599 15.6004 15.0008 15.6004H10.2008C10.0417 15.6004 9.88904 15.5372 9.77652 15.4247C9.664 15.3121 9.60078 15.1595 9.60078 15.0004ZM12.0008 7.80039V2.70039L17.7008 8.40039H12.6008C12.4417 8.40039 12.289 8.33718 12.1765 8.22465C12.064 8.11213 12.0008 7.95952 12.0008 7.80039ZM20.4008 10.8004C20.4008 10.4821 20.2744 10.1769 20.0493 9.95186C19.8243 9.72682 19.519 9.60039 19.2008 9.60039V16.8004C19.2008 17.7552 18.8215 18.6708 18.1464 19.346C17.4712 20.0211 16.5556 20.4004 15.6008 20.4004H7.20078C7.20078 20.7186 7.32721 21.0239 7.55225 21.2489C7.7773 21.474 8.08252 21.6004 8.40078 21.6004H15.6728C16.2937 21.6004 16.9085 21.4781 17.4821 21.2405C18.0557 21.0029 18.5769 20.6546 19.016 20.2156C19.455 19.7766 19.8033 19.2553 20.0409 18.6817C20.2785 18.1081 20.4008 17.4933 20.4008 16.8724V10.8004Z" fill="white"/>
</svg>
