<svg width="80" height="80" viewBox="0 0 80 80" fill="none" xmlns="http://www.w3.org/2000/svg">
<path d="M72.9994 39.9999C72.9994 39.6333 72.7993 39.2666 72.6993 38.8999C72.5451 38.2531 72.3445 37.6181 72.0993 36.9999C71.9327 36.5999 71.6994 36.1999 71.4994 35.7666C71.2994 35.3333 70.9994 34.7666 70.6993 34.2999C70.3993 33.8333 69.9994 33.5999 69.9994 33.3333C69.9994 33.0666 69.3327 32.4999 68.966 32.0999C68.5994 31.6999 68.266 31.4333 67.8994 31.0999L66.666 29.9999L65.466 29.1999C64.9949 28.9117 64.5049 28.6555 63.9994 28.4333L62.6993 27.8333C62.1549 27.6316 61.5982 27.4646 61.0327 27.3333C60.5847 27.2015 60.128 27.1012 59.666 27.0333L58.8994 26.6666C57.5392 22.7368 54.9879 19.3287 51.6005 16.9165C48.213 14.5043 44.1579 13.208 39.9994 13.208C35.8408 13.208 31.7857 14.5043 28.3982 16.9165C25.0108 19.3287 22.4595 22.7368 21.0993 26.6666L20.4993 26.8333C20.0373 26.9012 19.5807 27.0015 19.1327 27.1333C18.5671 27.2646 18.0105 27.4316 17.466 27.6333L16.166 28.2333C15.6604 28.4555 15.1704 28.7117 14.6993 28.9999L13.4994 29.9999L12.266 31.0333C11.8993 31.3666 11.5327 31.6666 11.1993 32.0333C10.866 32.3999 10.4993 32.8666 10.166 33.2666C9.83268 33.6666 9.56602 34.0333 9.29935 34.4666C9.03268 34.8999 8.76602 35.4333 8.49935 35.9333C8.23268 36.4333 8.06602 36.7666 7.89935 37.1666C7.65416 37.7848 7.45364 38.4197 7.29935 39.0666C7.29935 39.4333 7.06602 39.7999 6.99935 40.1666C6.79187 41.2098 6.68029 42.2698 6.66602 43.3333C6.68164 44.351 6.78199 45.3656 6.96602 46.3666C6.96602 46.6999 7.13268 46.9999 7.19935 47.3333C7.36411 47.9881 7.5644 48.6335 7.79935 49.2666L8.19935 50.2333C8.49278 50.8761 8.82678 51.4995 9.19935 52.0999L9.66602 52.8333C9.71397 52.9267 9.76973 53.0159 9.83268 53.0999L9.99935 53.3333C11.5518 55.4032 13.5649 57.0833 15.8791 58.2404C18.1934 59.3975 20.7453 59.9999 23.3327 59.9999H33.3327V55.4333C32.3199 56.0208 31.1702 56.3312 29.9993 56.3333C28.1935 56.3164 26.4678 55.5854 25.1994 54.2999C24.5903 53.6699 24.1115 52.926 23.7902 52.1107C23.4689 51.2955 23.3115 50.4249 23.327 49.5487C23.3425 48.6726 23.5305 47.8081 23.8804 47.0047C24.2303 46.2013 24.7351 45.4747 25.366 44.8666L35.366 35.1999C36.6102 34.0007 38.2714 33.3315 39.9994 33.3333C41.7646 33.3407 43.4548 34.048 44.6993 35.2999L54.6994 45.2999C55.941 46.549 56.638 48.2387 56.638 49.9999C56.638 51.7612 55.941 53.4509 54.6994 54.6999C53.4548 55.9519 51.7646 56.6592 49.9994 56.6666C48.8268 56.6776 47.6737 56.3663 46.666 55.7666V59.9999H56.666C59.2534 59.9999 61.8053 59.3975 64.1196 58.2404C66.4338 57.0833 68.4469 55.4032 69.9994 53.3333L70.166 53.1666C70.229 53.0826 70.2847 52.9934 70.3327 52.8999L70.7994 52.1666C71.1719 51.5662 71.5059 50.9427 71.7994 50.2999L72.1993 49.3333C72.4343 48.7002 72.6346 48.0548 72.7994 47.3999C72.7994 47.0666 72.966 46.7666 73.0327 46.4333C73.2204 45.4103 73.3208 44.3732 73.3327 43.3333C73.3288 42.214 73.2172 41.0978 72.9994 39.9999Z" fill="#0E5499"/>
<path d="M42.3668 37.6335C41.7437 37.0228 40.9059 36.6807 40.0334 36.6807C39.1609 36.6807 38.3232 37.0228 37.7001 37.6335L27.7001 47.3002C27.3464 47.592 27.0567 47.9537 26.8492 48.3627C26.6416 48.7716 26.5207 49.2189 26.494 49.6767C26.4672 50.1345 26.5352 50.5929 26.6937 51.0232C26.8521 51.4535 27.0977 51.8465 27.415 52.1776C27.7323 52.5087 28.1145 52.7707 28.5376 52.9474C28.9608 53.124 29.4159 53.2114 29.8744 53.2041C30.3329 53.1969 30.785 53.0951 31.2024 52.9051C31.6198 52.7152 31.9935 52.4412 32.3001 52.1002L36.6668 47.8669V66.6668C36.6668 67.5509 37.018 68.3988 37.6431 69.0239C38.2682 69.649 39.116 70.0002 40.0001 70.0002C40.8841 70.0002 41.732 69.649 42.3571 69.0239C42.9822 68.3988 43.3334 67.5509 43.3334 66.6668V48.0335L47.6334 52.3669C47.9433 52.6793 48.312 52.9273 48.7182 53.0965C49.1244 53.2657 49.5601 53.3528 50.0001 53.3528C50.4401 53.3528 50.8758 53.2657 51.282 53.0965C51.6882 52.9273 52.0569 52.6793 52.3668 52.3669C52.6792 52.057 52.9272 51.6883 53.0964 51.2821C53.2656 50.8759 53.3528 50.4402 53.3528 50.0002C53.3528 49.5601 53.2656 49.1245 53.0964 48.7183C52.9272 48.3121 52.6792 47.9434 52.3668 47.6335L42.3668 37.6335Z" fill="#0E5499"/>
</svg>
